<svg width="107" height="73" viewBox="0 0 107 73" fill="none" xmlns="http://www.w3.org/2000/svg"><path d="M104.826 40.8401C104.826 41.2531 104.496 41.5835 104.083 41.5835H102.433C102.185 43.2353 101.525 44.8045 100.535 46.126L101.69 47.2822C101.937 47.53 101.937 48.0256 101.69 48.3559L100.122 49.9251C99.8743 50.1729 99.3792 50.1729 99.0491 49.9251L97.8938 48.7689C96.5735 49.76 95.0056 50.4207 93.3551 50.6685V52.3203C93.3551 52.7332 93.025 53.0636 92.6124 53.0636H90.3843C89.9717 53.0636 89.6416 52.7332 89.6416 52.3203V50.6685C87.9912 50.4207 86.4233 49.76 85.1029 48.7689L83.9476 49.9251C83.7001 50.1729 83.2049 50.1729 82.8748 49.9251L81.3069 48.3559C81.0594 48.1081 81.0594 47.6126 81.3069 47.2822L82.4622 46.126C81.472 44.8045 80.8118 43.2353 80.5642 41.5835H78.9138C78.5012 41.5835 78.1711 41.2531 78.1711 40.8401V38.6102C78.1711 38.1972 78.5012 37.8669 78.9138 37.8669H80.5642C80.8118 36.215 81.472 34.6458 82.4622 33.3244L81.3069 32.1681C81.0594 31.9203 81.0594 31.4248 81.3069 31.0944L82.8748 29.5252C83.1224 29.2774 83.6175 29.2774 83.9476 29.5252L85.1029 30.6814C86.4233 29.6904 87.9912 29.0296 89.6416 28.7819V27.13C89.6416 26.7171 89.9717 26.3867 90.3843 26.3867H92.6124C93.025 26.3867 93.3551 26.7171 93.3551 27.13V28.7819C95.0056 29.0296 96.5735 29.6904 97.8938 30.6814L99.0491 29.5252C99.2967 29.2774 99.7918 29.2774 100.122 29.5252L101.69 31.0944C101.937 31.3422 101.937 31.8377 101.69 32.1681L100.535 33.3244C101.525 34.6458 102.185 36.215 102.433 37.8669H104.083C104.496 37.8669 104.826 38.1972 104.826 38.6102V40.8401Z" stroke="#42D392" stroke-width="2.45455" stroke-miterlimit="10" stroke-linecap="round"></path><path d="M12.6487 38.6104V58.1018C12.6487 58.1018 12.5662 61.8184 16.3622 61.8184H91.127" stroke="#42D392" stroke-width="2.45455" stroke-miterlimit="10" stroke-linecap="round" stroke-linejoin="round"></path><path d="M27.2551 8.54712H88.6514C88.6514 8.54712 92.0348 8.79489 92.1173 11.603C92.1998 14.4111 92.1998 19.2014 92.1998 19.2014" stroke="#42D392" stroke-width="2.45455" stroke-miterlimit="10" stroke-linecap="round" stroke-linejoin="round"></path><path d="M44.1721 27.7083L33.1967 35.1414L44.5847 42.7398" stroke="#145F1F" stroke-width="2.45455" stroke-miterlimit="10" stroke-linecap="round" stroke-linejoin="round"></path><path d="M62.7395 27.7083L73.7149 35.1414L62.3269 42.7398" stroke="#145F1F" stroke-width="2.45455" stroke-miterlimit="10" stroke-linecap="round" stroke-linejoin="round"></path><path d="M56.0552 25.8086L49.0409 44.8045" stroke="#145F1F" stroke-width="2.45455" stroke-miterlimit="10" stroke-linecap="round" stroke-linejoin="round"></path><path d="M91.7872 44.7218C94.4762 44.7218 96.656 42.5402 96.656 39.8489C96.656 37.1577 94.4762 34.9761 91.7872 34.9761C89.0982 34.9761 86.9184 37.1577 86.9184 39.8489C86.9184 42.5402 89.0982 44.7218 91.7872 44.7218Z" stroke="#1FE0BA" stroke-width="2.45455" stroke-miterlimit="10" stroke-linecap="round" stroke-linejoin="round"></path><path d="M48.4632 62.2314V70.4905" stroke="#1FE0BA" stroke-width="2.45455" stroke-miterlimit="10" stroke-linecap="round" stroke-linejoin="round"></path><path d="M58.3658 62.2314V70.7383" stroke="#1FE0BA" stroke-width="2.45455" stroke-miterlimit="10" stroke-linecap="round" stroke-linejoin="round"></path><path d="M41.0363 70.9036H65.9579" stroke="#1FE0BA" stroke-width="2.45455" stroke-miterlimit="10" stroke-linecap="round" stroke-linejoin="round"></path><path d="M13.3914 35.5543C18.6728 35.5543 18.8379 29.2773 18.8379 29.2773V22.2571C23.3766 18.3753 23.7067 13.7502 23.7067 13.7502C23.9542 5.40855 18.0127 2.1875 16.6923 2.1875C15.1244 2.1875 14.7118 4.33487 14.7118 4.33487V12.2636H13.0613H12.7313H11.0808V4.41746C11.0808 4.41746 10.7507 2.27009 9.1003 2.27009C7.69743 2.27009 1.83838 5.40855 2.00342 13.7502C2.00342 13.7502 2.33351 18.3753 6.87221 22.2571V29.2773C6.87221 29.2773 7.03725 35.5543 12.3187 35.5543H13.3914Z" stroke="#42D392" stroke-width="2.45455" stroke-miterlimit="10" stroke-linecap="round" stroke-linejoin="round"></path></svg>