<svg width="259" height="259" viewBox="0 0 259 259" fill="none" xmlns="http://www.w3.org/2000/svg">
<g clip-path="url(#clip0_101_2)">
<path d="M258.256 129.128C258.256 174.994 239.559 210.066 203.506 232.999C183.517 245.757 154.592 258.256 129.128 258.256C84.5531 258.256 55.5767 251.18 32.3853 216.935C18.4395 196.275 0 155.987 0 129.128C0 93.747 9.09062 56.5065 32.1271 33.1601C55.1635 9.81374 93.1789 0 129.128 0C178.197 0 215.747 27.3752 237.596 67.7148C247.306 85.9477 258.256 106.866 258.256 129.128Z" fill="black"/>
<path d="M125.073 55.8975L124.847 55.769H124.281L124.055 55.8975H125.073Z" fill="white"/>
<path d="M125.753 55.8975L125.979 55.769H124.96L125.186 55.8975H125.753Z" fill="white"/>
<path d="M126.884 55.8975L126.658 55.769H126.092L125.865 55.8975H126.884Z" fill="white"/>
<path d="M127.563 55.8975L127.79 55.769H126.771L126.997 55.8975H127.563Z" fill="white"/>
<path d="M128.695 55.8975L128.469 55.769H127.903L127.676 55.8975H128.695Z" fill="white"/>
<path d="M129.374 55.8975L129.6 55.769H128.582L128.808 55.8975H129.374Z" fill="white"/>
<path d="M130.506 55.8975L130.279 55.769H129.714L129.487 55.8975H130.506Z" fill="white"/>
<path d="M131.185 55.8975L131.411 55.769H130.393L130.619 55.8975H131.185Z" fill="white"/>
<path d="M132.317 55.8975L132.09 55.769H131.524L131.298 55.8975H132.317Z" fill="white"/>
<path d="M132.996 55.8975L133.222 55.769H132.203L132.43 55.8975H132.996Z" fill="white"/>
<path d="M134.128 55.8975L133.901 55.769H133.335L133.109 55.8975H134.128Z" fill="white"/>
<path d="M124.055 55.9813L123.828 56.2127H124.847L124.62 55.9813H124.055Z" fill="white"/>
<path d="M124.96 56.2127H125.526L125.753 55.9813H124.734L124.96 56.2127Z" fill="white"/>
<path d="M125.865 55.9813L125.639 56.2127H126.658L126.431 55.9813H125.865Z" fill="white"/>
<path d="M126.771 56.2127H127.337L127.563 55.9813H126.544L126.771 56.2127Z" fill="white"/>
<path d="M127.676 55.9813L127.45 56.2127H128.469L128.242 55.9813H127.676Z" fill="white"/>
<path d="M130.832 56.2127H131.398L131.624 55.9813H130.605L130.832 56.2127Z" fill="white"/>
<path d="M131.737 55.9813L131.51 56.2127H132.529L132.303 55.9813H131.737Z" fill="white"/>
<path d="M128.573 56.2127H129.139L129.365 55.9813H128.346L128.573 56.2127Z" fill="white"/>
<path d="M129.478 55.9813L129.252 56.2127H130.714L130.487 55.9813H129.478Z" fill="white"/>
<path d="M129.403 56.5408L129.629 56.3088H128.611L128.837 56.5408H129.403Z" fill="white"/>
<path d="M130.752 56.3088H129.742L129.516 56.5408H130.978L130.752 56.3088Z" fill="white"/>
<path d="M132.642 56.2127H133.208L133.435 55.9813H132.416L132.642 56.2127Z" fill="white"/>
<path d="M133.547 55.9813L133.321 56.2127H134.34L134.113 55.9813H133.547Z" fill="white"/>
<path d="M124.281 56.3088H123.715L123.489 56.5408H124.507L124.281 56.3088Z" fill="white"/>
<path d="M125.186 56.5408L125.413 56.3088H124.394L124.621 56.5408H125.186Z" fill="white"/>
<path d="M126.092 56.3088H125.526L125.299 56.5408H126.318L126.092 56.3088Z" fill="white"/>
<path d="M126.997 56.5408L127.224 56.3088H126.205L126.431 56.5408H126.997Z" fill="white"/>
<path d="M128.497 56.3088H127.337L127.11 56.5408H128.723L128.497 56.3088Z" fill="white"/>
<path d="M131.709 56.5408L131.935 56.3088H130.917L131.143 56.5408H131.709Z" fill="white"/>
<path d="M132.614 56.3088H132.048L131.822 56.5408H132.84L132.614 56.3088Z" fill="white"/>
<path d="M133.519 56.5408L133.746 56.3088H132.727L132.954 56.5408H133.519Z" fill="white"/>
<path d="M134.425 56.3088H133.859L133.632 56.5408H134.651L134.425 56.3088Z" fill="white"/>
<path d="M127.072 56.8553L126.474 57.5437H131.666L131.19 56.8553H127.072Z" fill="white"/>
<path d="M138.186 57.9287L138.197 57.9196L136.049 55.3134L136.035 47.5576C136.035 46.9349 135.528 46.4281 134.905 46.4281H123.235C122.613 46.4281 122.106 46.9349 122.106 47.5553L122.087 49.3694V55.1698L119.846 57.8887C119.841 57.8941 119.836 57.8997 119.832 57.9062L119.821 57.9198L119.824 57.9229C119.793 57.9806 119.784 58.0628 119.784 58.1772C119.784 58.2614 119.809 58.3399 119.848 58.4082C119.871 58.463 119.916 58.5068 119.969 58.5461H138.171C138.283 58.4614 138.356 58.3282 138.356 58.1772C138.355 58.0673 138.285 57.9866 138.186 57.9287ZM135.185 47.2975V54.0629L126.073 47.2975H135.185ZM121.055 58.326H120.503C120.444 58.326 120.395 58.284 120.395 58.2324C120.395 58.1803 120.444 58.1379 120.503 58.1379H121.055C121.114 58.1379 121.163 58.1801 121.163 58.2324C121.163 58.284 121.114 58.326 121.055 58.326ZM121.473 58.326H121.334C121.274 58.326 121.226 58.284 121.226 58.2324C121.226 58.1803 121.274 58.1379 121.334 58.1379H121.473C121.533 58.1379 121.581 58.1801 121.581 58.2324C121.582 58.284 121.533 58.326 121.473 58.326ZM130.105 58.3003H127.096C127.016 58.3003 127.035 58.2641 127.035 58.2192C127.035 58.1747 127.016 58.1383 127.096 58.1383H130.105C130.186 58.1383 130.173 58.1747 130.173 58.2192C130.173 58.2639 130.186 58.3003 130.105 58.3003ZM120.167 57.8164L122.11 55.4924H136.006L137.788 57.8164H120.167Z" fill="white"/>
<path d="M146.085 184.182C137.27 185.346 126.293 185.845 126.293 185.845C125.129 162.061 124.297 111 126.792 86.7173C122.967 86.7173 118.808 87.2163 115.316 88.2142C114.151 126.136 114.484 174.535 115.815 200.98C126.293 200.814 137.769 199.151 145.919 196.323C146.085 192.332 146.252 187.675 146.085 184.182ZM151.74 174.369C152.738 182.685 152.239 192.997 151.241 202.311C138.601 208.299 122.634 211.126 106.002 211.292C105.336 180.855 107 126.136 109.993 82.0603C119.64 77.5696 128.455 77.0706 138.434 77.0706C134.276 101.52 132.78 153.412 132.946 177.529C136.771 177.03 142.426 176.365 151.74 174.369Z" fill="white"/>
</g>
<defs>
<clipPath id="clip0_101_2">
<rect width="258.256" height="258.256" fill="white"/>
</clipPath>
</defs>
</svg>
