<svg width="82" height="73" viewBox="0 0 82 73" fill="none" xmlns="http://www.w3.org/2000/svg"><path d="M80.5455 71.7065H2V12.717H80.5455V71.7065Z" stroke="#42D392" stroke-width="2.45455" stroke-miterlimit="10"></path><path d="M80.5455 12.5495H2V4.34954C2 2.84343 3.57922 1.83936 5.07532 1.83936H77.4701C78.9662 1.83936 80.5455 2.75976 80.5455 4.34954V12.5495Z" stroke="#42D392" stroke-width="2.45455" stroke-miterlimit="10"></path><path d="M8.56623 8.61685C9.3466 8.61685 9.97922 7.98 9.97922 7.19441C9.97922 6.40882 9.3466 5.77197 8.56623 5.77197C7.78586 5.77197 7.15324 6.40882 7.15324 7.19441C7.15324 7.98 7.78586 8.61685 8.56623 8.61685Z" stroke="#42D392" stroke-width="1.22727" stroke-miterlimit="10"></path><path d="M13.1377 8.61685C13.918 8.61685 14.5507 7.98 14.5507 7.19441C14.5507 6.40882 13.918 5.77197 13.1377 5.77197C12.3573 5.77197 11.7247 6.40882 11.7247 7.19441C11.7247 7.98 12.3573 8.61685 13.1377 8.61685Z" stroke="#42D392" stroke-width="1.22727" stroke-miterlimit="10"></path><path d="M17.7091 8.61685C18.4894 8.61685 19.1221 7.98 19.1221 7.19441C19.1221 6.40882 18.4894 5.77197 17.7091 5.77197C16.9287 5.77197 16.2961 6.40882 16.2961 7.19441C16.2961 7.98 16.9287 8.61685 17.7091 8.61685Z" stroke="#42D392" stroke-width="1.22727" stroke-miterlimit="10"></path><path d="M41.2311 60.243C51.5376 60.243 59.8493 51.792 59.8493 41.5002C59.8493 31.2085 51.5376 22.6738 41.2311 22.6738C30.9247 22.6738 22.613 31.1248 22.613 41.5002C22.613 51.8757 30.9247 60.243 41.2311 60.243ZM29.5948 53.0471C29.6779 53.0471 29.6779 52.9634 29.761 52.9634C31.0078 52.2941 32.5039 51.792 34 51.29C34.748 53.3818 35.7454 55.4736 36.9922 57.2308C37.0753 57.3144 37.0753 57.3981 37.1584 57.4818C34.1662 56.645 31.5896 55.0553 29.5948 53.0471ZM47.9636 42.6717C47.8805 44.6798 47.6311 46.7716 47.0493 48.6124C45.2208 48.2778 43.3091 48.0267 41.2311 48.0267C39.2363 48.0267 37.2415 48.1941 35.413 48.6124C34.8311 46.7716 34.5818 44.7635 34.4987 42.6717H47.9636ZM34.4987 40.4125C34.5818 38.4043 34.8311 36.3125 35.413 34.4717C37.2415 34.8064 39.1532 35.0574 41.2311 35.0574C43.226 35.0574 45.2208 34.8901 47.0493 34.4717C47.6311 36.3125 47.8805 38.3207 47.9636 40.4125H34.4987ZM42.0623 57.9001C41.813 57.9001 41.4805 57.9001 41.2311 57.9001C40.9818 57.9001 40.6493 57.9001 40.4 57.9001C40.3169 57.8165 40.3169 57.8165 40.2337 57.7328C38.5714 55.8083 37.2415 53.3818 36.161 50.7879C37.8234 50.5369 39.4857 50.2859 41.3143 50.2859C43.1428 50.2859 44.8052 50.4533 46.4675 50.7879C45.4701 53.4655 44.0571 55.8083 42.3948 57.7328C42.2285 57.8165 42.1454 57.8165 42.0623 57.9001ZM45.387 57.4818C45.4701 57.3981 45.4701 57.3144 45.5532 57.2308C46.7169 55.4736 47.7974 53.5492 48.5454 51.29C50.0415 51.792 51.3714 52.2104 52.7844 52.8798C52.8675 52.8798 52.8675 52.9634 52.9506 52.9634C50.8727 55.0553 48.2961 56.645 45.387 57.4818ZM54.3636 51.29C54.2805 51.29 54.2805 51.2063 54.1974 51.2063C52.6182 50.3696 50.9558 49.7002 49.1272 49.1982C49.7091 47.19 50.0415 44.9308 50.1246 42.7553H57.4389C57.2727 45.8512 56.1922 48.7798 54.3636 51.29ZM54.3636 31.7942C56.1091 34.2207 57.2727 37.1493 57.5221 40.4125H50.2078C50.1246 38.1533 49.7091 35.9778 49.2104 33.9697C50.9558 33.384 52.7013 32.7983 54.2805 31.9615C54.2805 31.8779 54.3636 31.7942 54.3636 31.7942ZM52.8675 30.037C52.7844 30.037 52.7844 30.1207 52.7013 30.1207C51.4545 30.7901 49.9584 31.2921 48.4623 31.7105C47.7143 29.6187 46.7169 27.5269 45.4701 25.7697C45.387 25.6861 45.387 25.6024 45.3039 25.5187C48.2961 26.3554 50.8727 27.8616 52.8675 30.037ZM40.4 25.1003C40.6493 25.1003 40.9818 25.1003 41.2311 25.1003C41.4805 25.1003 41.813 25.1003 42.0623 25.1003C42.1454 25.184 42.1454 25.184 42.2285 25.2677C43.8909 27.1922 45.2208 29.6187 46.3013 32.2125C44.6389 32.4636 42.9766 32.7146 41.148 32.7146C39.3195 32.7146 37.6571 32.5472 35.9948 32.2125C36.9922 29.535 38.4052 27.1922 40.0675 25.2677C40.2337 25.184 40.3169 25.1003 40.4 25.1003ZM37.0753 25.6024C36.9922 25.6861 36.9922 25.7697 36.9091 25.8534C35.7454 27.6105 34.6649 29.535 33.9169 31.7942C32.4208 31.2921 31.0909 30.8738 29.6779 30.2044C29.5948 30.2044 29.5948 30.1207 29.5117 30.1207C31.5896 27.8616 34.1662 26.3554 37.0753 25.6024ZM28.0987 31.7942C28.1818 31.7942 28.1818 31.8779 28.2649 31.8779C29.8441 32.7146 31.5065 33.384 33.335 33.886C32.7532 35.8942 32.4208 38.1533 32.3376 40.3288H25.0234C25.1065 37.1492 26.2701 34.137 28.0987 31.7942ZM32.2545 42.6717C32.3376 44.9308 32.7532 47.1063 33.2519 49.1145C31.5065 49.7002 29.761 50.2859 28.1818 51.1226C28.0987 51.1226 28.0987 51.2063 28.0156 51.2063C26.2701 48.7798 25.1065 45.8512 24.8571 42.588L32.2545 42.6717Z" stroke="#42D392" stroke-width="1.84091" stroke-miterlimit="10"></path><path d="M75.4075 62.1395H72.6494H71.73L72.0827 62.9885L73.961 67.5101L73.2491 67.8359L71.3875 63.3544L71.0343 62.5042L70.3855 63.1574L68.4422 65.1136V55.1984L75.4075 62.1395Z" fill="#145F1F" stroke="#42D392" stroke-width="1.22727"></path><mask id="path-8-inside-1_488_13323" fill="white"><path d="M73.2312 68.5266C72.9818 68.5266 72.7325 68.3593 72.6494 68.1919L70.8208 63.7573L68.3273 66.2675C68.2442 66.3511 68.1611 66.3511 68.0779 66.3511C67.9117 66.3511 67.7455 66.1838 67.7455 66.0164V54.3022C67.7455 54.2185 67.7455 54.1349 67.8286 54.0512C67.9117 53.9675 67.9948 53.9675 68.0779 53.9675C68.1611 53.9675 68.2442 53.9675 68.3273 54.0512L76.5559 62.2512C76.639 62.3348 76.639 62.4185 76.639 62.5022C76.639 62.6695 76.4727 62.8369 76.3065 62.8369H72.8987L74.7273 67.2715C74.8935 67.6062 74.7273 67.9409 74.3948 68.0246L73.4805 68.4429C73.3143 68.5266 73.3143 68.5266 73.2312 68.5266ZM70.9039 63.4226L72.8156 68.1083C72.8987 68.2756 72.9818 68.3593 73.1481 68.3593C73.2312 68.3593 73.2312 68.3593 73.3143 68.3593L74.2286 67.9409C74.3948 67.8572 74.5611 67.6062 74.4779 67.4389L72.4831 62.6695H76.2234C76.3065 62.6695 76.3896 62.5858 76.3896 62.5022C76.3896 62.5022 76.3896 62.4185 76.3065 62.4185L68.0779 54.2185C67.9948 54.1349 67.9117 54.1349 67.9117 54.2185L67.8286 54.3022V66.0164C67.8286 66.1001 67.9117 66.1838 67.9948 66.1838C67.9948 66.1838 68.0779 66.1838 68.0779 66.1001L70.9039 63.4226Z"></path></mask><path d="M73.2312 68.5266C72.9818 68.5266 72.7325 68.3593 72.6494 68.1919L70.8208 63.7573L68.3273 66.2675C68.2442 66.3511 68.1611 66.3511 68.0779 66.3511C67.9117 66.3511 67.7455 66.1838 67.7455 66.0164V54.3022C67.7455 54.2185 67.7455 54.1349 67.8286 54.0512C67.9117 53.9675 67.9948 53.9675 68.0779 53.9675C68.1611 53.9675 68.2442 53.9675 68.3273 54.0512L76.5559 62.2512C76.639 62.3348 76.639 62.4185 76.639 62.5022C76.639 62.6695 76.4727 62.8369 76.3065 62.8369H72.8987L74.7273 67.2715C74.8935 67.6062 74.7273 67.9409 74.3948 68.0246L73.4805 68.4429C73.3143 68.5266 73.3143 68.5266 73.2312 68.5266ZM70.9039 63.4226L72.8156 68.1083C72.8987 68.2756 72.9818 68.3593 73.1481 68.3593C73.2312 68.3593 73.2312 68.3593 73.3143 68.3593L74.2286 67.9409C74.3948 67.8572 74.5611 67.6062 74.4779 67.4389L72.4831 62.6695H76.2234C76.3065 62.6695 76.3896 62.5858 76.3896 62.5022C76.3896 62.5022 76.3896 62.4185 76.3065 62.4185L68.0779 54.2185C67.9948 54.1349 67.9117 54.1349 67.9117 54.2185L67.8286 54.3022V66.0164C67.8286 66.1001 67.9117 66.1838 67.9948 66.1838C67.9948 66.1838 68.0779 66.1838 68.0779 66.1001L70.9039 63.4226Z" fill="#145F1F"></path><path d="M72.6494 68.1919L71.5148 68.6598L71.5311 68.6994L71.5502 68.7379L72.6494 68.1919ZM70.8208 63.7573L71.9554 63.2894L71.2515 61.5823L69.9501 62.8923L70.8208 63.7573ZM68.3273 66.2675L69.198 67.1324L68.3273 66.2675ZM68.3273 54.0512L67.4566 54.9161L67.461 54.9205L68.3273 54.0512ZM76.5559 62.2512L77.4266 61.3862L77.4222 61.3818L76.5559 62.2512ZM72.8987 62.8369V61.6096H71.0652L71.7641 63.3047L72.8987 62.8369ZM74.7273 67.2715L73.5927 67.7394L73.609 67.779L73.6281 67.8175L74.7273 67.2715ZM74.3948 68.0246L74.0953 66.8344L73.9863 66.8618L73.8842 66.9086L74.3948 68.0246ZM73.4805 68.4429L72.9699 67.327L72.9491 67.3365L72.9288 67.3467L73.4805 68.4429ZM70.9039 63.4226L72.0403 62.959L71.3624 61.2975L70.0598 62.5317L70.9039 63.4226ZM72.8156 68.1083L71.6793 68.5719L71.6963 68.6137L71.7164 68.6542L72.8156 68.1083ZM73.3143 68.3593V69.5865H73.5818L73.825 69.4753L73.3143 68.3593ZM74.2286 67.9409L74.7392 69.0569L74.76 69.0474L74.7804 69.0371L74.2286 67.9409ZM74.4779 67.4389L73.3457 67.9124L73.3611 67.9492L73.3788 67.9848L74.4779 67.4389ZM72.4831 62.6695V61.4422H70.6395L71.3509 63.1431L72.4831 62.6695ZM76.3896 62.5022L75.1624 62.5021V62.5022H76.3896ZM76.3065 62.4185L75.4402 63.2878L75.7994 63.6458H76.3065V62.4185ZM68.0779 54.2185L67.2072 55.0835L67.2116 55.0879L68.0779 54.2185ZM67.9117 54.2185L68.7824 55.0835L69.139 54.7245V54.2185H67.9117ZM67.8286 54.3022L66.9579 53.4373L66.6013 53.7963V54.3022H67.8286ZM67.9948 66.1838L67.9948 64.9565H67.9948V66.1838ZM68.0779 66.1001L67.2338 65.2092L66.8507 65.5723V66.1001H68.0779ZM73.2312 67.2994C73.3717 67.2994 73.4639 67.3422 73.5125 67.3715C73.5412 67.3889 73.5748 67.4135 73.611 67.4499C73.6449 67.484 73.6994 67.547 73.7485 67.646L71.5502 68.7379C71.7224 69.0845 71.9986 69.3247 72.2434 69.4725C72.4998 69.6274 72.8413 69.7539 73.2312 69.7539V67.2994ZM73.784 67.7241L71.9554 63.2894L69.6862 64.2251L71.5148 68.6598L73.784 67.7241ZM69.9501 62.8923L67.4566 65.4025L69.198 67.1324L71.6915 64.6222L69.9501 62.8923ZM67.4566 65.4025C67.5752 65.2832 67.7322 65.1935 67.9031 65.1505C68.0325 65.1179 68.1424 65.1239 68.0779 65.1239V67.5784C68.1805 67.5784 68.7332 67.6002 69.198 67.1324L67.4566 65.4025ZM68.0779 65.1239C68.3969 65.1239 68.611 65.2718 68.7201 65.3816C68.8297 65.4919 68.9727 65.7039 68.9727 66.0164H66.5182C66.5182 66.4964 66.7444 66.8756 66.9787 67.1114C67.2124 67.3468 67.5928 67.5784 68.0779 67.5784V65.1239ZM68.9727 66.0164V54.3022H66.5182V66.0164H68.9727ZM68.9727 54.3022C68.9727 54.2377 68.9785 54.3454 68.947 54.4725C68.9052 54.6405 68.8178 54.7968 68.6993 54.9161L66.9579 53.1863C66.4958 53.6515 66.5182 54.2015 66.5182 54.3022H68.9727ZM68.6993 54.9161C68.5807 55.0355 68.4237 55.1251 68.2528 55.1681C68.1234 55.2007 68.0135 55.1948 68.0779 55.1948V52.7403C67.9754 52.7403 67.4226 52.7184 66.9579 53.1863L68.6993 54.9161ZM68.0779 55.1948C68.1424 55.1948 68.0325 55.2007 67.9031 55.1682C67.7322 55.1251 67.5752 55.0355 67.4566 54.9161L69.198 53.1863C68.7332 52.7184 68.1805 52.7403 68.0779 52.7403V55.1948ZM67.461 54.9205L75.6896 63.1205L77.4222 61.3818L69.1936 53.1819L67.461 54.9205ZM75.6852 63.1161C75.5667 62.9968 75.4792 62.8405 75.4375 62.6725C75.4059 62.5454 75.4117 62.4376 75.4117 62.5022H77.8663C77.8663 62.4014 77.8886 61.8514 77.4266 61.3862L75.6852 63.1161ZM75.4117 62.5022C75.4117 62.1896 75.5548 61.9777 75.6644 61.8674C75.7734 61.7576 75.9876 61.6096 76.3065 61.6096V64.0641C76.7917 64.0641 77.172 63.8325 77.4058 63.5972C77.64 63.3614 77.8663 62.9821 77.8663 62.5022H75.4117ZM76.3065 61.6096H72.8987V64.0641H76.3065V61.6096ZM71.7641 63.3047L73.5927 67.7394L75.8619 66.8037L74.0333 62.369L71.7641 63.3047ZM73.6281 67.8175C73.5604 67.681 73.5277 67.4592 73.6325 67.2307C73.735 67.0071 73.924 66.8775 74.0953 66.8344L74.6944 69.2147C75.1981 69.088 75.6365 68.7492 75.8637 68.2537C76.0931 67.7533 76.0605 67.1967 75.8265 66.7256L73.6281 67.8175ZM73.8842 66.9086L72.9699 67.327L73.9912 69.5589L74.9055 69.1406L73.8842 66.9086ZM72.9288 67.3467C72.8823 67.3701 72.8649 67.3788 72.8549 67.3836C72.8427 67.3893 72.8781 67.3715 72.9342 67.3527C72.9664 67.3419 73.0052 67.3307 73.0497 67.3213C73.0945 67.3119 73.1352 67.3063 73.1699 67.3032C73.2024 67.3002 73.2265 67.2996 73.2347 67.2994C73.241 67.2993 73.2448 67.2994 73.2312 67.2994V69.7539C73.2349 69.7539 73.312 69.755 73.3937 69.7475C73.5031 69.7375 73.6096 69.7151 73.7152 69.6797C73.8025 69.6504 73.8742 69.6168 73.9114 69.5991C73.9507 69.5803 73.9956 69.5577 74.0323 69.5392L72.9288 67.3467ZM69.7676 63.8862L71.6793 68.5719L73.9519 67.6447L72.0403 62.959L69.7676 63.8862ZM71.7164 68.6542C71.7825 68.7872 71.9198 69.0421 72.1809 69.2524C72.4865 69.4985 72.8342 69.5865 73.1481 69.5865V67.132C73.2096 67.132 73.3034 67.1398 73.414 67.1754C73.5286 67.2124 73.6327 67.27 73.7204 67.3407C73.8776 67.4673 73.9318 67.5966 73.9148 67.5623L71.7164 68.6542ZM73.1481 69.5865C73.1482 69.5865 73.1484 69.5865 73.1486 69.5865C73.1487 69.5865 73.1489 69.5865 73.149 69.5865C73.1492 69.5865 73.1494 69.5865 73.1495 69.5865C73.1497 69.5865 73.1498 69.5865 73.15 69.5865C73.1502 69.5865 73.1503 69.5865 73.1505 69.5865C73.1506 69.5865 73.1508 69.5865 73.151 69.5865C73.1511 69.5865 73.1513 69.5865 73.1514 69.5865C73.1516 69.5865 73.1518 69.5865 73.1519 69.5865C73.1521 69.5865 73.1522 69.5865 73.1524 69.5865C73.1525 69.5865 73.1527 69.5865 73.1528 69.5865C73.153 69.5865 73.1532 69.5865 73.1533 69.5865C73.1535 69.5865 73.1536 69.5865 73.1538 69.5865C73.1539 69.5865 73.1541 69.5865 73.1542 69.5865C73.1544 69.5865 73.1546 69.5865 73.1547 69.5865C73.1549 69.5865 73.155 69.5865 73.1552 69.5865C73.1553 69.5865 73.1555 69.5865 73.1556 69.5865C73.1558 69.5865 73.1559 69.5865 73.1561 69.5865C73.1562 69.5865 73.1564 69.5865 73.1565 69.5865C73.1567 69.5865 73.1568 69.5865 73.157 69.5865C73.1571 69.5865 73.1573 69.5865 73.1574 69.5865C73.1576 69.5865 73.1577 69.5865 73.1579 69.5865C73.158 69.5865 73.1582 69.5865 73.1583 69.5865C73.1585 69.5865 73.1586 69.5865 73.1588 69.5865C73.1589 69.5865 73.1591 69.5865 73.1592 69.5865C73.1594 69.5865 73.1595 69.5865 73.1597 69.5865C73.1598 69.5865 73.16 69.5865 73.1601 69.5865C73.1603 69.5865 73.1604 69.5865 73.1606 69.5865C73.1607 69.5865 73.1608 69.5865 73.161 69.5865C73.1611 69.5865 73.1613 69.5865 73.1614 69.5865C73.1616 69.5865 73.1617 69.5865 73.1619 69.5865C73.162 69.5865 73.1621 69.5865 73.1623 69.5865C73.1624 69.5865 73.1626 69.5865 73.1627 69.5865C73.1629 69.5865 73.163 69.5865 73.1632 69.5865C73.1633 69.5865 73.1634 69.5865 73.1636 69.5865C73.1637 69.5865 73.1639 69.5865 73.164 69.5865C73.1641 69.5865 73.1643 69.5865 73.1644 69.5865C73.1646 69.5865 73.1647 69.5865 73.1649 69.5865C73.165 69.5865 73.1651 69.5865 73.1653 69.5865C73.1654 69.5865 73.1656 69.5865 73.1657 69.5865C73.1658 69.5865 73.166 69.5865 73.1661 69.5865C73.1662 69.5865 73.1664 69.5865 73.1665 69.5865C73.1667 69.5865 73.1668 69.5865 73.1669 69.5865C73.1671 69.5865 73.1672 69.5865 73.1674 69.5865C73.1675 69.5865 73.1676 69.5865 73.1678 69.5865C73.1679 69.5865 73.168 69.5865 73.1682 69.5865C73.1683 69.5865 73.1684 69.5865 73.1686 69.5865C73.1687 69.5865 73.1689 69.5865 73.169 69.5865C73.1691 69.5865 73.1693 69.5865 73.1694 69.5865C73.1695 69.5865 73.1697 69.5865 73.1698 69.5865C73.1699 69.5865 73.1701 69.5865 73.1702 69.5865C73.1703 69.5865 73.1705 69.5865 73.1706 69.5865C73.1707 69.5865 73.1709 69.5865 73.171 69.5865C73.1711 69.5865 73.1713 69.5865 73.1714 69.5865C73.1715 69.5865 73.1717 69.5865 73.1718 69.5865C73.1719 69.5865 73.1721 69.5865 73.1722 69.5865C73.1723 69.5865 73.1724 69.5865 73.1726 69.5865C73.1727 69.5865 73.1728 69.5865 73.173 69.5865C73.1731 69.5865 73.1732 69.5865 73.1734 69.5865C73.1735 69.5865 73.1736 69.5865 73.1738 69.5865C73.1739 69.5865 73.174 69.5865 73.1741 69.5865C73.1743 69.5865 73.1744 69.5865 73.1745 69.5865C73.1747 69.5865 73.1748 69.5865 73.1749 69.5865C73.175 69.5865 73.1752 69.5865 73.1753 69.5865C73.1754 69.5865 73.1755 69.5865 73.1757 69.5865C73.1758 69.5865 73.1759 69.5865 73.1761 69.5865C73.1762 69.5865 73.1763 69.5865 73.1764 69.5865C73.1766 69.5865 73.1767 69.5865 73.1768 69.5865C73.1769 69.5865 73.1771 69.5865 73.1772 69.5865C73.1773 69.5865 73.1774 69.5865 73.1776 69.5865C73.1777 69.5865 73.1778 69.5865 73.1779 69.5865C73.1781 69.5865 73.1782 69.5865 73.1783 69.5865C73.1784 69.5865 73.1785 69.5865 73.1787 69.5865C73.1788 69.5865 73.1789 69.5865 73.179 69.5865C73.1792 69.5865 73.1793 69.5865 73.1794 69.5865C73.1795 69.5865 73.1796 69.5865 73.1798 69.5865C73.1799 69.5865 73.18 69.5865 73.1801 69.5865C73.1803 69.5865 73.1804 69.5865 73.1805 69.5865C73.1806 69.5865 73.1807 69.5865 73.1809 69.5865C73.181 69.5865 73.1811 69.5865 73.1812 69.5865C73.1813 69.5865 73.1815 69.5865 73.1816 69.5865C73.1817 69.5865 73.1818 69.5865 73.1819 69.5865C73.1821 69.5865 73.1822 69.5865 73.1823 69.5865C73.1824 69.5865 73.1825 69.5865 73.1827 69.5865C73.1828 69.5865 73.1829 69.5865 73.183 69.5865C73.1831 69.5865 73.1832 69.5865 73.1834 69.5865C73.1835 69.5865 73.1836 69.5865 73.1837 69.5865C73.1838 69.5865 73.1839 69.5865 73.1841 69.5865C73.1842 69.5865 73.1843 69.5865 73.1844 69.5865C73.1845 69.5865 73.1846 69.5865 73.1848 69.5865C73.1849 69.5865 73.185 69.5865 73.1851 69.5865C73.1852 69.5865 73.1853 69.5865 73.1854 69.5865C73.1856 69.5865 73.1857 69.5865 73.1858 69.5865C73.1859 69.5865 73.186 69.5865 73.1861 69.5865C73.1862 69.5865 73.1864 69.5865 73.1865 69.5865C73.1866 69.5865 73.1867 69.5865 73.1868 69.5865C73.1869 69.5865 73.187 69.5865 73.1872 69.5865C73.1873 69.5865 73.1874 69.5865 73.1875 69.5865C73.1876 69.5865 73.1877 69.5865 73.1878 69.5865C73.1879 69.5865 73.1881 69.5865 73.1882 69.5865C73.1883 69.5865 73.1884 69.5865 73.1885 69.5865C73.1886 69.5865 73.1887 69.5865 73.1888 69.5865C73.1889 69.5865 73.1891 69.5865 73.1892 69.5865C73.1893 69.5865 73.1894 69.5865 73.1895 69.5865C73.1896 69.5865 73.1897 69.5865 73.1898 69.5865C73.1899 69.5865 73.19 69.5865 73.1902 69.5865C73.1903 69.5865 73.1904 69.5865 73.1905 69.5865C73.1906 69.5865 73.1907 69.5865 73.1908 69.5865C73.1909 69.5865 73.191 69.5865 73.1911 69.5865C73.1912 69.5865 73.1914 69.5865 73.1915 69.5865C73.1916 69.5865 73.1917 69.5865 73.1918 69.5865C73.1919 69.5865 73.192 69.5865 73.1921 69.5865C73.1922 69.5865 73.1923 69.5865 73.1924 69.5865C73.1925 69.5865 73.1926 69.5865 73.1927 69.5865C73.1929 69.5865 73.193 69.5865 73.1931 69.5865C73.1932 69.5865 73.1933 69.5865 73.1934 69.5865C73.1935 69.5865 73.1936 69.5865 73.1937 69.5865C73.1938 69.5865 73.1939 69.5865 73.194 69.5865C73.1941 69.5865 73.1942 69.5865 73.1943 69.5865C73.1944 69.5865 73.1945 69.5865 73.1946 69.5865C73.1947 69.5865 73.1949 69.5865 73.195 69.5865C73.1951 69.5865 73.1952 69.5865 73.1953 69.5865C73.1954 69.5865 73.1955 69.5865 73.1956 69.5865C73.1957 69.5865 73.1958 69.5865 73.1959 69.5865C73.196 69.5865 73.1961 69.5865 73.1962 69.5865C73.1963 69.5865 73.1964 69.5865 73.1965 69.5865C73.1966 69.5865 73.1967 69.5865 73.1968 69.5865C73.1969 69.5865 73.197 69.5865 73.1971 69.5865C73.1972 69.5865 73.1973 69.5865 73.1974 69.5865C73.1975 69.5865 73.1976 69.5865 73.1977 69.5865C73.1978 69.5865 73.1979 69.5865 73.198 69.5865C73.1981 69.5865 73.1982 69.5865 73.1983 69.5865C73.1984 69.5865 73.1985 69.5865 73.1986 69.5865C73.1987 69.5865 73.1988 69.5865 73.1989 69.5865C73.199 69.5865 73.1991 69.5865 73.1992 69.5865C73.1993 69.5865 73.1994 69.5865 73.1995 69.5865C73.1996 69.5865 73.1997 69.5865 73.1998 69.5865C73.1999 69.5865 73.2 69.5865 73.2001 69.5865C73.2002 69.5865 73.2003 69.5865 73.2004 69.5865C73.2005 69.5865 73.2006 69.5865 73.2007 69.5865C73.2008 69.5865 73.2009 69.5865 73.201 69.5865C73.2011 69.5865 73.2012 69.5865 73.2013 69.5865C73.2014 69.5865 73.2015 69.5865 73.2016 69.5865C73.2017 69.5865 73.2018 69.5865 73.2019 69.5865C73.202 69.5865 73.2021 69.5865 73.2022 69.5865C73.2023 69.5865 73.2024 69.5865 73.2025 69.5865C73.2026 69.5865 73.2027 69.5865 73.2028 69.5865C73.2029 69.5865 73.2029 69.5865 73.203 69.5865C73.2031 69.5865 73.2032 69.5865 73.2033 69.5865C73.2034 69.5865 73.2035 69.5865 73.2036 69.5865C73.2037 69.5865 73.2038 69.5865 73.2039 69.5865C73.204 69.5865 73.2041 69.5865 73.2042 69.5865C73.2043 69.5865 73.2044 69.5865 73.2045 69.5865C73.2046 69.5865 73.2047 69.5865 73.2048 69.5865C73.2048 69.5865 73.2049 69.5865 73.205 69.5865C73.2051 69.5865 73.2052 69.5865 73.2053 69.5865C73.2054 69.5865 73.2055 69.5865 73.2056 69.5865C73.2057 69.5865 73.2058 69.5865 73.2059 69.5865C73.206 69.5865 73.2061 69.5865 73.2062 69.5865C73.2063 69.5865 73.2063 69.5865 73.2064 69.5865C73.2065 69.5865 73.2066 69.5865 73.2067 69.5865C73.2068 69.5865 73.2069 69.5865 73.207 69.5865C73.2071 69.5865 73.2072 69.5865 73.2073 69.5865C73.2074 69.5865 73.2075 69.5865 73.2075 69.5865C73.2076 69.5865 73.2077 69.5865 73.2078 69.5865C73.2079 69.5865 73.208 69.5865 73.2081 69.5865C73.2082 69.5865 73.2083 69.5865 73.2084 69.5865C73.2085 69.5865 73.2086 69.5865 73.2086 69.5865C73.2087 69.5865 73.2088 69.5865 73.2089 69.5865C73.209 69.5865 73.2091 69.5865 73.2092 69.5865C73.2093 69.5865 73.2094 69.5865 73.2095 69.5865C73.2096 69.5865 73.2096 69.5865 73.2097 69.5865C73.2098 69.5865 73.2099 69.5865 73.21 69.5865C73.2101 69.5865 73.2102 69.5865 73.2103 69.5865C73.2104 69.5865 73.2104 69.5865 73.2105 69.5865C73.2106 69.5865 73.2107 69.5865 73.2108 69.5865C73.2109 69.5865 73.211 69.5865 73.2111 69.5865C73.2112 69.5865 73.2113 69.5865 73.2113 69.5865C73.2114 69.5865 73.2115 69.5865 73.2116 69.5865C73.2117 69.5865 73.2118 69.5865 73.2119 69.5865C73.212 69.5865 73.2121 69.5865 73.2121 69.5865C73.2122 69.5865 73.2123 69.5865 73.2124 69.5865C73.2125 69.5865 73.2126 69.5865 73.2127 69.5865C73.2128 69.5865 73.2128 69.5865 73.2129 69.5865C73.213 69.5865 73.2131 69.5865 73.2132 69.5865C73.2133 69.5865 73.2134 69.5865 73.2135 69.5865C73.2135 69.5865 73.2136 69.5865 73.2137 69.5865C73.2138 69.5865 73.2139 69.5865 73.214 69.5865C73.2141 69.5865 73.2142 69.5865 73.2142 69.5865C73.2143 69.5865 73.2144 69.5865 73.2145 69.5865C73.2146 69.5865 73.2147 69.5865 73.2148 69.5865C73.2148 69.5865 73.2149 69.5865 73.215 69.5865C73.2151 69.5865 73.2152 69.5865 73.2153 69.5865C73.2154 69.5865 73.2155 69.5865 73.2155 69.5865C73.2156 69.5865 73.2157 69.5865 73.2158 69.5865C73.2159 69.5865 73.216 69.5865 73.2161 69.5865C73.2161 69.5865 73.2162 69.5865 73.2163 69.5865C73.2164 69.5865 73.2165 69.5865 73.2166 69.5865C73.2167 69.5865 73.2167 69.5865 73.2168 69.5865C73.2169 69.5865 73.217 69.5865 73.2171 69.5865C73.2172 69.5865 73.2173 69.5865 73.2173 69.5865C73.2174 69.5865 73.2175 69.5865 73.2176 69.5865C73.2177 69.5865 73.2178 69.5865 73.2178 69.5865C73.2179 69.5865 73.218 69.5865 73.2181 69.5865C73.2182 69.5865 73.2183 69.5865 73.2184 69.5865C73.2184 69.5865 73.2185 69.5865 73.2186 69.5865C73.2187 69.5865 73.2188 69.5865 73.2189 69.5865C73.2189 69.5865 73.219 69.5865 73.2191 69.5865C73.2192 69.5865 73.2193 69.5865 73.2194 69.5865C73.2194 69.5865 73.2195 69.5865 73.2196 69.5865C73.2197 69.5865 73.2198 69.5865 73.2199 69.5865C73.22 69.5865 73.22 69.5865 73.2201 69.5865C73.2202 69.5865 73.2203 69.5865 73.2204 69.5865C73.2205 69.5865 73.2205 69.5865 73.2206 69.5865C73.2207 69.5865 73.2208 69.5865 73.2209 69.5865C73.221 69.5865 73.221 69.5865 73.2211 69.5865C73.2212 69.5865 73.2213 69.5865 73.2214 69.5865C73.2215 69.5865 73.2215 69.5865 73.2216 69.5865C73.2217 69.5865 73.2218 69.5865 73.2219 69.5865C73.222 69.5865 73.222 69.5865 73.2221 69.5865C73.2222 69.5865 73.2223 69.5865 73.2224 69.5865C73.2224 69.5865 73.2225 69.5865 73.2226 69.5865C73.2227 69.5865 73.2228 69.5865 73.2229 69.5865C73.2229 69.5865 73.223 69.5865 73.2231 69.5865C73.2232 69.5865 73.2233 69.5865 73.2234 69.5865C73.2234 69.5865 73.2235 69.5865 73.2236 69.5865C73.2237 69.5865 73.2238 69.5865 73.2239 69.5865C73.2239 69.5865 73.224 69.5865 73.2241 69.5865C73.2242 69.5865 73.2243 69.5865 73.2243 69.5865C73.2244 69.5865 73.2245 69.5865 73.2246 69.5865C73.2247 69.5865 73.2248 69.5865 73.2248 69.5865C73.2249 69.5865 73.225 69.5865 73.2251 69.5865C73.2252 69.5865 73.2252 69.5865 73.2253 69.5865C73.2254 69.5865 73.2255 69.5865 73.2256 69.5865C73.2257 69.5865 73.2257 69.5865 73.2258 69.5865C73.2259 69.5865 73.226 69.5865 73.2261 69.5865C73.2261 69.5865 73.2262 69.5865 73.2263 69.5865C73.2264 69.5865 73.2265 69.5865 73.2266 69.5865C73.2266 69.5865 73.2267 69.5865 73.2268 69.5865C73.2269 69.5865 73.227 69.5865 73.227 69.5865C73.2271 69.5865 73.2272 69.5865 73.2273 69.5865C73.2274 69.5865 73.2275 69.5865 73.2275 69.5865C73.2276 69.5865 73.2277 69.5865 73.2278 69.5865C73.2279 69.5865 73.2279 69.5865 73.228 69.5865C73.2281 69.5865 73.2282 69.5865 73.2283 69.5865C73.2283 69.5865 73.2284 69.5865 73.2285 69.5865C73.2286 69.5865 73.2287 69.5865 73.2288 69.5865C73.2288 69.5865 73.2289 69.5865 73.229 69.5865C73.2291 69.5865 73.2292 69.5865 73.2292 69.5865C73.2293 69.5865 73.2294 69.5865 73.2295 69.5865C73.2296 69.5865 73.2296 69.5865 73.2297 69.5865C73.2298 69.5865 73.2299 69.5865 73.23 69.5865C73.2301 69.5865 73.2301 69.5865 73.2302 69.5865C73.2303 69.5865 73.2304 69.5865 73.2305 69.5865C73.2305 69.5865 73.2306 69.5865 73.2307 69.5865C73.2308 69.5865 73.2309 69.5865 73.2309 69.5865C73.231 69.5865 73.2311 69.5865 73.2312 69.5865C73.2313 69.5865 73.2314 69.5865 73.2314 69.5865C73.2315 69.5865 73.2316 69.5865 73.2317 69.5865C73.2318 69.5865 73.2318 69.5865 73.2319 69.5865C73.232 69.5865 73.2321 69.5865 73.2322 69.5865C73.2322 69.5865 73.2323 69.5865 73.2324 69.5865C73.2325 69.5865 73.2326 69.5865 73.2327 69.5865C73.2327 69.5865 73.2328 69.5865 73.2329 69.5865C73.233 69.5865 73.2331 69.5865 73.2331 69.5865C73.2332 69.5865 73.2333 69.5865 73.2334 69.5865C73.2335 69.5865 73.2335 69.5865 73.2336 69.5865C73.2337 69.5865 73.2338 69.5865 73.2339 69.5865C73.234 69.5865 73.234 69.5865 73.2341 69.5865C73.2342 69.5865 73.2343 69.5865 73.2344 69.5865C73.2344 69.5865 73.2345 69.5865 73.2346 69.5865C73.2347 69.5865 73.2348 69.5865 73.2348 69.5865C73.2349 69.5865 73.235 69.5865 73.2351 69.5865C73.2352 69.5865 73.2353 69.5865 73.2353 69.5865C73.2354 69.5865 73.2355 69.5865 73.2356 69.5865C73.2357 69.5865 73.2357 69.5865 73.2358 69.5865C73.2359 69.5865 73.236 69.5865 73.2361 69.5865C73.2362 69.5865 73.2362 69.5865 73.2363 69.5865C73.2364 69.5865 73.2365 69.5865 73.2366 69.5865C73.2366 69.5865 73.2367 69.5865 73.2368 69.5865C73.2369 69.5865 73.237 69.5865 73.237 69.5865C73.2371 69.5865 73.2372 69.5865 73.2373 69.5865C73.2374 69.5865 73.2375 69.5865 73.2375 69.5865C73.2376 69.5865 73.2377 69.5865 73.2378 69.5865C73.2379 69.5865 73.238 69.5865 73.238 69.5865C73.2381 69.5865 73.2382 69.5865 73.2383 69.5865C73.2384 69.5865 73.2384 69.5865 73.2385 69.5865C73.2386 69.5865 73.2387 69.5865 73.2388 69.5865C73.2389 69.5865 73.2389 69.5865 73.239 69.5865C73.2391 69.5865 73.2392 69.5865 73.2393 69.5865C73.2394 69.5865 73.2394 69.5865 73.2395 69.5865C73.2396 69.5865 73.2397 69.5865 73.2398 69.5865C73.2398 69.5865 73.2399 69.5865 73.24 69.5865C73.2401 69.5865 73.2402 69.5865 73.2403 69.5865C73.2403 69.5865 73.2404 69.5865 73.2405 69.5865C73.2406 69.5865 73.2407 69.5865 73.2408 69.5865C73.2408 69.5865 73.2409 69.5865 73.241 69.5865C73.2411 69.5865 73.2412 69.5865 73.2413 69.5865C73.2413 69.5865 73.2414 69.5865 73.2415 69.5865C73.2416 69.5865 73.2417 69.5865 73.2418 69.5865C73.2418 69.5865 73.2419 69.5865 73.242 69.5865C73.2421 69.5865 73.2422 69.5865 73.2423 69.5865C73.2423 69.5865 73.2424 69.5865 73.2425 69.5865C73.2426 69.5865 73.2427 69.5865 73.2428 69.5865C73.2428 69.5865 73.2429 69.5865 73.243 69.5865C73.2431 69.5865 73.2432 69.5865 73.2433 69.5865C73.2434 69.5865 73.2434 69.5865 73.2435 69.5865C73.2436 69.5865 73.2437 69.5865 73.2438 69.5865C73.2439 69.5865 73.2439 69.5865 73.244 69.5865C73.2441 69.5865 73.2442 69.5865 73.2443 69.5865C73.2444 69.5865 73.2444 69.5865 73.2445 69.5865C73.2446 69.5865 73.2447 69.5865 73.2448 69.5865C73.2449 69.5865 73.245 69.5865 73.245 69.5865C73.2451 69.5865 73.2452 69.5865 73.2453 69.5865C73.2454 69.5865 73.2455 69.5865 73.2456 69.5865C73.2456 69.5865 73.2457 69.5865 73.2458 69.5865C73.2459 69.5865 73.246 69.5865 73.2461 69.5865C73.2462 69.5865 73.2462 69.5865 73.2463 69.5865C73.2464 69.5865 73.2465 69.5865 73.2466 69.5865C73.2467 69.5865 73.2468 69.5865 73.2468 69.5865C73.2469 69.5865 73.247 69.5865 73.2471 69.5865C73.2472 69.5865 73.2473 69.5865 73.2474 69.5865C73.2474 69.5865 73.2475 69.5865 73.2476 69.5865C73.2477 69.5865 73.2478 69.5865 73.2479 69.5865C73.248 69.5865 73.248 69.5865 73.2481 69.5865C73.2482 69.5865 73.2483 69.5865 73.2484 69.5865C73.2485 69.5865 73.2486 69.5865 73.2487 69.5865C73.2487 69.5865 73.2488 69.5865 73.2489 69.5865C73.249 69.5865 73.2491 69.5865 73.2492 69.5865C73.2493 69.5865 73.2494 69.5865 73.2494 69.5865C73.2495 69.5865 73.2496 69.5865 73.2497 69.5865C73.2498 69.5865 73.2499 69.5865 73.25 69.5865C73.2501 69.5865 73.2502 69.5865 73.2502 69.5865C73.2503 69.5865 73.2504 69.5865 73.2505 69.5865C73.2506 69.5865 73.2507 69.5865 73.2508 69.5865C73.2509 69.5865 73.2509 69.5865 73.251 69.5865C73.2511 69.5865 73.2512 69.5865 73.2513 69.5865C73.2514 69.5865 73.2515 69.5865 73.2516 69.5865C73.2517 69.5865 73.2517 69.5865 73.2518 69.5865C73.2519 69.5865 73.252 69.5865 73.2521 69.5865C73.2522 69.5865 73.2523 69.5865 73.2524 69.5865C73.2525 69.5865 73.2526 69.5865 73.2526 69.5865C73.2527 69.5865 73.2528 69.5865 73.2529 69.5865C73.253 69.5865 73.2531 69.5865 73.2532 69.5865C73.2533 69.5865 73.2534 69.5865 73.2535 69.5865C73.2536 69.5865 73.2536 69.5865 73.2537 69.5865C73.2538 69.5865 73.2539 69.5865 73.254 69.5865C73.2541 69.5865 73.2542 69.5865 73.2543 69.5865C73.2544 69.5865 73.2545 69.5865 73.2546 69.5865C73.2546 69.5865 73.2547 69.5865 73.2548 69.5865C73.2549 69.5865 73.255 69.5865 73.2551 69.5865C73.2552 69.5865 73.2553 69.5865 73.2554 69.5865C73.2555 69.5865 73.2556 69.5865 73.2557 69.5865C73.2558 69.5865 73.2558 69.5865 73.2559 69.5865C73.256 69.5865 73.2561 69.5865 73.2562 69.5865C73.2563 69.5865 73.2564 69.5865 73.2565 69.5865C73.2566 69.5865 73.2567 69.5865 73.2568 69.5865C73.2569 69.5865 73.257 69.5865 73.2571 69.5865C73.2572 69.5865 73.2572 69.5865 73.2573 69.5865C73.2574 69.5865 73.2575 69.5865 73.2576 69.5865C73.2577 69.5865 73.2578 69.5865 73.2579 69.5865C73.258 69.5865 73.2581 69.5865 73.2582 69.5865C73.2583 69.5865 73.2584 69.5865 73.2585 69.5865C73.2586 69.5865 73.2587 69.5865 73.2588 69.5865C73.2589 69.5865 73.259 69.5865 73.259 69.5865C73.2591 69.5865 73.2592 69.5865 73.2593 69.5865C73.2594 69.5865 73.2595 69.5865 73.2596 69.5865C73.2597 69.5865 73.2598 69.5865 73.2599 69.5865C73.26 69.5865 73.2601 69.5865 73.2602 69.5865C73.2603 69.5865 73.2604 69.5865 73.2605 69.5865C73.2606 69.5865 73.2607 69.5865 73.2608 69.5865C73.2609 69.5865 73.261 69.5865 73.2611 69.5865C73.2612 69.5865 73.2613 69.5865 73.2614 69.5865C73.2615 69.5865 73.2616 69.5865 73.2617 69.5865C73.2618 69.5865 73.2619 69.5865 73.262 69.5865C73.2621 69.5865 73.2622 69.5865 73.2623 69.5865C73.2624 69.5865 73.2624 69.5865 73.2625 69.5865C73.2626 69.5865 73.2627 69.5865 73.2628 69.5865C73.2629 69.5865 73.263 69.5865 73.2631 69.5865C73.2632 69.5865 73.2633 69.5865 73.2634 69.5865C73.2635 69.5865 73.2636 69.5865 73.2637 69.5865C73.2638 69.5865 73.2639 69.5865 73.264 69.5865C73.2641 69.5865 73.2642 69.5865 73.2643 69.5865C73.2644 69.5865 73.2645 69.5865 73.2647 69.5865C73.2648 69.5865 73.2649 69.5865 73.265 69.5865C73.2651 69.5865 73.2652 69.5865 73.2653 69.5865C73.2654 69.5865 73.2655 69.5865 73.2656 69.5865C73.2657 69.5865 73.2658 69.5865 73.2659 69.5865C73.266 69.5865 73.2661 69.5865 73.2662 69.5865C73.2663 69.5865 73.2664 69.5865 73.2665 69.5865C73.2666 69.5865 73.2667 69.5865 73.2668 69.5865C73.2669 69.5865 73.267 69.5865 73.2671 69.5865C73.2672 69.5865 73.2673 69.5865 73.2674 69.5865C73.2675 69.5865 73.2676 69.5865 73.2677 69.5865C73.2678 69.5865 73.2679 69.5865 73.268 69.5865C73.2682 69.5865 73.2683 69.5865 73.2684 69.5865C73.2685 69.5865 73.2686 69.5865 73.2687 69.5865C73.2688 69.5865 73.2689 69.5865 73.269 69.5865C73.2691 69.5865 73.2692 69.5865 73.2693 69.5865C73.2694 69.5865 73.2695 69.5865 73.2696 69.5865C73.2697 69.5865 73.2698 69.5865 73.27 69.5865C73.2701 69.5865 73.2702 69.5865 73.2703 69.5865C73.2704 69.5865 73.2705 69.5865 73.2706 69.5865C73.2707 69.5865 73.2708 69.5865 73.2709 69.5865C73.271 69.5865 73.2711 69.5865 73.2712 69.5865C73.2714 69.5865 73.2715 69.5865 73.2716 69.5865C73.2717 69.5865 73.2718 69.5865 73.2719 69.5865C73.272 69.5865 73.2721 69.5865 73.2722 69.5865C73.2723 69.5865 73.2724 69.5865 73.2726 69.5865C73.2727 69.5865 73.2728 69.5865 73.2729 69.5865C73.273 69.5865 73.2731 69.5865 73.2732 69.5865C73.2733 69.5865 73.2734 69.5865 73.2735 69.5865C73.2737 69.5865 73.2738 69.5865 73.2739 69.5865C73.274 69.5865 73.2741 69.5865 73.2742 69.5865C73.2743 69.5865 73.2744 69.5865 73.2745 69.5865C73.2747 69.5865 73.2748 69.5865 73.2749 69.5865C73.275 69.5865 73.2751 69.5865 73.2752 69.5865C73.2753 69.5865 73.2754 69.5865 73.2756 69.5865C73.2757 69.5865 73.2758 69.5865 73.2759 69.5865C73.276 69.5865 73.2761 69.5865 73.2762 69.5865C73.2764 69.5865 73.2765 69.5865 73.2766 69.5865C73.2767 69.5865 73.2768 69.5865 73.2769 69.5865C73.277 69.5865 73.2772 69.5865 73.2773 69.5865C73.2774 69.5865 73.2775 69.5865 73.2776 69.5865C73.2777 69.5865 73.2779 69.5865 73.278 69.5865C73.2781 69.5865 73.2782 69.5865 73.2783 69.5865C73.2784 69.5865 73.2786 69.5865 73.2787 69.5865C73.2788 69.5865 73.2789 69.5865 73.279 69.5865C73.2791 69.5865 73.2793 69.5865 73.2794 69.5865C73.2795 69.5865 73.2796 69.5865 73.2797 69.5865C73.2798 69.5865 73.28 69.5865 73.2801 69.5865C73.2802 69.5865 73.2803 69.5865 73.2804 69.5865C73.2806 69.5865 73.2807 69.5865 73.2808 69.5865C73.2809 69.5865 73.281 69.5865 73.2812 69.5865C73.2813 69.5865 73.2814 69.5865 73.2815 69.5865C73.2816 69.5865 73.2818 69.5865 73.2819 69.5865C73.282 69.5865 73.2821 69.5865 73.2822 69.5865C73.2824 69.5865 73.2825 69.5865 73.2826 69.5865C73.2827 69.5865 73.2829 69.5865 73.283 69.5865C73.2831 69.5865 73.2832 69.5865 73.2833 69.5865C73.2835 69.5865 73.2836 69.5865 73.2837 69.5865C73.2838 69.5865 73.284 69.5865 73.2841 69.5865C73.2842 69.5865 73.2843 69.5865 73.2844 69.5865C73.2846 69.5865 73.2847 69.5865 73.2848 69.5865C73.2849 69.5865 73.2851 69.5865 73.2852 69.5865C73.2853 69.5865 73.2854 69.5865 73.2856 69.5865C73.2857 69.5865 73.2858 69.5865 73.2859 69.5865C73.2861 69.5865 73.2862 69.5865 73.2863 69.5865C73.2865 69.5865 73.2866 69.5865 73.2867 69.5865C73.2868 69.5865 73.287 69.5865 73.2871 69.5865C73.2872 69.5865 73.2873 69.5865 73.2875 69.5865C73.2876 69.5865 73.2877 69.5865 73.2879 69.5865C73.288 69.5865 73.2881 69.5865 73.2882 69.5865C73.2884 69.5865 73.2885 69.5865 73.2886 69.5865C73.2888 69.5865 73.2889 69.5865 73.289 69.5865C73.2891 69.5865 73.2893 69.5865 73.2894 69.5865C73.2895 69.5865 73.2897 69.5865 73.2898 69.5865C73.2899 69.5865 73.2901 69.5865 73.2902 69.5865C73.2903 69.5865 73.2905 69.5865 73.2906 69.5865C73.2907 69.5865 73.2908 69.5865 73.291 69.5865C73.2911 69.5865 73.2912 69.5865 73.2914 69.5865C73.2915 69.5865 73.2916 69.5865 73.2918 69.5865C73.2919 69.5865 73.292 69.5865 73.2922 69.5865C73.2923 69.5865 73.2924 69.5865 73.2926 69.5865C73.2927 69.5865 73.2928 69.5865 73.293 69.5865C73.2931 69.5865 73.2933 69.5865 73.2934 69.5865C73.2935 69.5865 73.2937 69.5865 73.2938 69.5865C73.2939 69.5865 73.2941 69.5865 73.2942 69.5865C73.2943 69.5865 73.2945 69.5865 73.2946 69.5865C73.2947 69.5865 73.2949 69.5865 73.295 69.5865C73.2952 69.5865 73.2953 69.5865 73.2954 69.5865C73.2956 69.5865 73.2957 69.5865 73.2959 69.5865C73.296 69.5865 73.2961 69.5865 73.2963 69.5865C73.2964 69.5865 73.2965 69.5865 73.2967 69.5865C73.2968 69.5865 73.297 69.5865 73.2971 69.5865C73.2972 69.5865 73.2974 69.5865 73.2975 69.5865C73.2977 69.5865 73.2978 69.5865 73.2979 69.5865C73.2981 69.5865 73.2982 69.5865 73.2984 69.5865C73.2985 69.5865 73.2987 69.5865 73.2988 69.5865C73.2989 69.5865 73.2991 69.5865 73.2992 69.5865C73.2994 69.5865 73.2995 69.5865 73.2997 69.5865C73.2998 69.5865 73.2999 69.5865 73.3001 69.5865C73.3002 69.5865 73.3004 69.5865 73.3005 69.5865C73.3007 69.5865 73.3008 69.5865 73.301 69.5865C73.3011 69.5865 73.3012 69.5865 73.3014 69.5865C73.3015 69.5865 73.3017 69.5865 73.3018 69.5865C73.302 69.5865 73.3021 69.5865 73.3023 69.5865C73.3024 69.5865 73.3026 69.5865 73.3027 69.5865C73.3029 69.5865 73.303 69.5865 73.3031 69.5865C73.3033 69.5865 73.3034 69.5865 73.3036 69.5865C73.3037 69.5865 73.3039 69.5865 73.304 69.5865C73.3042 69.5865 73.3043 69.5865 73.3045 69.5865C73.3046 69.5865 73.3048 69.5865 73.3049 69.5865C73.3051 69.5865 73.3052 69.5865 73.3054 69.5865C73.3055 69.5865 73.3057 69.5865 73.3058 69.5865C73.306 69.5865 73.3061 69.5865 73.3063 69.5865C73.3064 69.5865 73.3066 69.5865 73.3068 69.5865C73.3069 69.5865 73.3071 69.5865 73.3072 69.5865C73.3074 69.5865 73.3075 69.5865 73.3077 69.5865C73.3078 69.5865 73.308 69.5865 73.3081 69.5865C73.3083 69.5865 73.3084 69.5865 73.3086 69.5865C73.3087 69.5865 73.3089 69.5865 73.3091 69.5865C73.3092 69.5865 73.3094 69.5865 73.3095 69.5865C73.3097 69.5865 73.3098 69.5865 73.31 69.5865C73.3102 69.5865 73.3103 69.5865 73.3105 69.5865C73.3106 69.5865 73.3108 69.5865 73.3109 69.5865C73.3111 69.5865 73.3113 69.5865 73.3114 69.5865C73.3116 69.5865 73.3117 69.5865 73.3119 69.5865C73.3121 69.5865 73.3122 69.5865 73.3124 69.5865C73.3125 69.5865 73.3127 69.5865 73.3129 69.5865C73.313 69.5865 73.3132 69.5865 73.3133 69.5865C73.3135 69.5865 73.3137 69.5865 73.3138 69.5865C73.314 69.5865 73.3141 69.5865 73.3143 69.5865V67.132C73.3141 67.132 73.314 67.132 73.3138 67.132C73.3137 67.132 73.3135 67.132 73.3133 67.132C73.3132 67.132 73.313 67.132 73.3129 67.132C73.3127 67.132 73.3125 67.132 73.3124 67.132C73.3122 67.132 73.3121 67.132 73.3119 67.132C73.3117 67.132 73.3116 67.132 73.3114 67.132C73.3113 67.132 73.3111 67.132 73.3109 67.132C73.3108 67.132 73.3106 67.132 73.3105 67.132C73.3103 67.132 73.3102 67.132 73.31 67.132C73.3098 67.132 73.3097 67.132 73.3095 67.132C73.3094 67.132 73.3092 67.132 73.3091 67.132C73.3089 67.132 73.3087 67.132 73.3086 67.132C73.3084 67.132 73.3083 67.132 73.3081 67.132C73.308 67.132 73.3078 67.132 73.3077 67.132C73.3075 67.132 73.3074 67.132 73.3072 67.132C73.3071 67.132 73.3069 67.132 73.3068 67.132C73.3066 67.132 73.3064 67.132 73.3063 67.132C73.3061 67.132 73.306 67.132 73.3058 67.132C73.3057 67.132 73.3055 67.132 73.3054 67.132C73.3052 67.132 73.3051 67.132 73.3049 67.132C73.3048 67.132 73.3046 67.132 73.3045 67.132C73.3043 67.132 73.3042 67.132 73.304 67.132C73.3039 67.132 73.3037 67.132 73.3036 67.132C73.3034 67.132 73.3033 67.132 73.3031 67.132C73.303 67.132 73.3029 67.132 73.3027 67.132C73.3026 67.132 73.3024 67.132 73.3023 67.132C73.3021 67.132 73.302 67.132 73.3018 67.132C73.3017 67.132 73.3015 67.132 73.3014 67.132C73.3012 67.132 73.3011 67.132 73.301 67.132C73.3008 67.132 73.3007 67.132 73.3005 67.132C73.3004 67.132 73.3002 67.132 73.3001 67.132C73.2999 67.132 73.2998 67.132 73.2997 67.132C73.2995 67.132 73.2994 67.132 73.2992 67.132C73.2991 67.132 73.2989 67.132 73.2988 67.132C73.2987 67.132 73.2985 67.132 73.2984 67.132C73.2982 67.132 73.2981 67.132 73.2979 67.132C73.2978 67.132 73.2977 67.132 73.2975 67.132C73.2974 67.132 73.2972 67.132 73.2971 67.132C73.297 67.132 73.2968 67.132 73.2967 67.132C73.2965 67.132 73.2964 67.132 73.2963 67.132C73.2961 67.132 73.296 67.132 73.2959 67.132C73.2957 67.132 73.2956 67.132 73.2954 67.132C73.2953 67.132 73.2952 67.132 73.295 67.132C73.2949 67.132 73.2947 67.132 73.2946 67.132C73.2945 67.132 73.2943 67.132 73.2942 67.132C73.2941 67.132 73.2939 67.132 73.2938 67.132C73.2937 67.132 73.2935 67.132 73.2934 67.132C73.2933 67.132 73.2931 67.132 73.293 67.132C73.2928 67.132 73.2927 67.132 73.2926 67.132C73.2924 67.132 73.2923 67.132 73.2922 67.132C73.292 67.132 73.2919 67.132 73.2918 67.132C73.2916 67.132 73.2915 67.132 73.2914 67.132C73.2912 67.132 73.2911 67.132 73.291 67.132C73.2908 67.132 73.2907 67.132 73.2906 67.132C73.2905 67.132 73.2903 67.132 73.2902 67.132C73.2901 67.132 73.2899 67.132 73.2898 67.132C73.2897 67.132 73.2895 67.132 73.2894 67.132C73.2893 67.132 73.2891 67.132 73.289 67.132C73.2889 67.132 73.2888 67.132 73.2886 67.132C73.2885 67.132 73.2884 67.132 73.2882 67.132C73.2881 67.132 73.288 67.132 73.2879 67.132C73.2877 67.132 73.2876 67.132 73.2875 67.132C73.2873 67.132 73.2872 67.132 73.2871 67.132C73.287 67.132 73.2868 67.132 73.2867 67.132C73.2866 67.132 73.2865 67.132 73.2863 67.132C73.2862 67.132 73.2861 67.132 73.2859 67.132C73.2858 67.132 73.2857 67.132 73.2856 67.132C73.2854 67.132 73.2853 67.132 73.2852 67.132C73.2851 67.132 73.2849 67.132 73.2848 67.132C73.2847 67.132 73.2846 67.132 73.2844 67.132C73.2843 67.132 73.2842 67.132 73.2841 67.132C73.284 67.132 73.2838 67.132 73.2837 67.132C73.2836 67.132 73.2835 67.132 73.2833 67.132C73.2832 67.132 73.2831 67.132 73.283 67.132C73.2829 67.132 73.2827 67.132 73.2826 67.132C73.2825 67.132 73.2824 67.132 73.2822 67.132C73.2821 67.132 73.282 67.132 73.2819 67.132C73.2818 67.132 73.2816 67.132 73.2815 67.132C73.2814 67.132 73.2813 67.132 73.2812 67.132C73.281 67.132 73.2809 67.132 73.2808 67.132C73.2807 67.132 73.2806 67.132 73.2804 67.132C73.2803 67.132 73.2802 67.132 73.2801 67.132C73.28 67.132 73.2798 67.132 73.2797 67.132C73.2796 67.132 73.2795 67.132 73.2794 67.132C73.2793 67.132 73.2791 67.132 73.279 67.132C73.2789 67.132 73.2788 67.132 73.2787 67.132C73.2786 67.132 73.2784 67.132 73.2783 67.132C73.2782 67.132 73.2781 67.132 73.278 67.132C73.2779 67.132 73.2777 67.132 73.2776 67.132C73.2775 67.132 73.2774 67.132 73.2773 67.132C73.2772 67.132 73.277 67.132 73.2769 67.132C73.2768 67.132 73.2767 67.132 73.2766 67.132C73.2765 67.132 73.2764 67.132 73.2762 67.132C73.2761 67.132 73.276 67.132 73.2759 67.132C73.2758 67.132 73.2757 67.132 73.2756 67.132C73.2754 67.132 73.2753 67.132 73.2752 67.132C73.2751 67.132 73.275 67.132 73.2749 67.132C73.2748 67.132 73.2747 67.132 73.2745 67.132C73.2744 67.132 73.2743 67.132 73.2742 67.132C73.2741 67.132 73.274 67.132 73.2739 67.132C73.2738 67.132 73.2737 67.132 73.2735 67.132C73.2734 67.132 73.2733 67.132 73.2732 67.132C73.2731 67.132 73.273 67.132 73.2729 67.132C73.2728 67.132 73.2727 67.132 73.2726 67.132C73.2724 67.132 73.2723 67.132 73.2722 67.132C73.2721 67.132 73.272 67.132 73.2719 67.132C73.2718 67.132 73.2717 67.132 73.2716 67.132C73.2715 67.132 73.2714 67.132 73.2712 67.132C73.2711 67.132 73.271 67.132 73.2709 67.132C73.2708 67.132 73.2707 67.132 73.2706 67.132C73.2705 67.132 73.2704 67.132 73.2703 67.132C73.2702 67.132 73.2701 67.132 73.27 67.132C73.2698 67.132 73.2697 67.132 73.2696 67.132C73.2695 67.132 73.2694 67.132 73.2693 67.132C73.2692 67.132 73.2691 67.132 73.269 67.132C73.2689 67.132 73.2688 67.132 73.2687 67.132C73.2686 67.132 73.2685 67.132 73.2684 67.132C73.2683 67.132 73.2682 67.132 73.268 67.132C73.2679 67.132 73.2678 67.132 73.2677 67.132C73.2676 67.132 73.2675 67.132 73.2674 67.132C73.2673 67.132 73.2672 67.132 73.2671 67.132C73.267 67.132 73.2669 67.132 73.2668 67.132C73.2667 67.132 73.2666 67.132 73.2665 67.132C73.2664 67.132 73.2663 67.132 73.2662 67.132C73.2661 67.132 73.266 67.132 73.2659 67.132C73.2658 67.132 73.2657 67.132 73.2656 67.132C73.2655 67.132 73.2654 67.132 73.2653 67.132C73.2652 67.132 73.2651 67.132 73.265 67.132C73.2649 67.132 73.2648 67.132 73.2647 67.132C73.2645 67.132 73.2644 67.132 73.2643 67.132C73.2642 67.132 73.2641 67.132 73.264 67.132C73.2639 67.132 73.2638 67.132 73.2637 67.132C73.2636 67.132 73.2635 67.132 73.2634 67.132C73.2633 67.132 73.2632 67.132 73.2631 67.132C73.263 67.132 73.2629 67.132 73.2628 67.132C73.2627 67.132 73.2626 67.132 73.2625 67.132C73.2624 67.132 73.2624 67.132 73.2623 67.132C73.2622 67.132 73.2621 67.132 73.262 67.132C73.2619 67.132 73.2618 67.132 73.2617 67.132C73.2616 67.132 73.2615 67.132 73.2614 67.132C73.2613 67.132 73.2612 67.132 73.2611 67.132C73.261 67.132 73.2609 67.132 73.2608 67.132C73.2607 67.132 73.2606 67.132 73.2605 67.132C73.2604 67.132 73.2603 67.132 73.2602 67.132C73.2601 67.132 73.26 67.132 73.2599 67.132C73.2598 67.132 73.2597 67.132 73.2596 67.132C73.2595 67.132 73.2594 67.132 73.2593 67.132C73.2592 67.132 73.2591 67.132 73.259 67.132C73.259 67.132 73.2589 67.132 73.2588 67.132C73.2587 67.132 73.2586 67.132 73.2585 67.132C73.2584 67.132 73.2583 67.132 73.2582 67.132C73.2581 67.132 73.258 67.132 73.2579 67.132C73.2578 67.132 73.2577 67.132 73.2576 67.132C73.2575 67.132 73.2574 67.132 73.2573 67.132C73.2572 67.132 73.2572 67.132 73.2571 67.132C73.257 67.132 73.2569 67.132 73.2568 67.132C73.2567 67.132 73.2566 67.132 73.2565 67.132C73.2564 67.132 73.2563 67.132 73.2562 67.132C73.2561 67.132 73.256 67.132 73.2559 67.132C73.2558 67.132 73.2558 67.132 73.2557 67.132C73.2556 67.132 73.2555 67.132 73.2554 67.132C73.2553 67.132 73.2552 67.132 73.2551 67.132C73.255 67.132 73.2549 67.132 73.2548 67.132C73.2547 67.132 73.2546 67.132 73.2546 67.132C73.2545 67.132 73.2544 67.132 73.2543 67.132C73.2542 67.132 73.2541 67.132 73.254 67.132C73.2539 67.132 73.2538 67.132 73.2537 67.132C73.2536 67.132 73.2536 67.132 73.2535 67.132C73.2534 67.132 73.2533 67.132 73.2532 67.132C73.2531 67.132 73.253 67.132 73.2529 67.132C73.2528 67.132 73.2527 67.132 73.2526 67.132C73.2526 67.132 73.2525 67.132 73.2524 67.132C73.2523 67.132 73.2522 67.132 73.2521 67.132C73.252 67.132 73.2519 67.132 73.2518 67.132C73.2517 67.132 73.2517 67.132 73.2516 67.132C73.2515 67.132 73.2514 67.132 73.2513 67.132C73.2512 67.132 73.2511 67.132 73.251 67.132C73.2509 67.132 73.2509 67.132 73.2508 67.132C73.2507 67.132 73.2506 67.132 73.2505 67.132C73.2504 67.132 73.2503 67.132 73.2502 67.132C73.2502 67.132 73.2501 67.132 73.25 67.132C73.2499 67.132 73.2498 67.132 73.2497 67.132C73.2496 67.132 73.2495 67.132 73.2494 67.132C73.2494 67.132 73.2493 67.132 73.2492 67.132C73.2491 67.132 73.249 67.132 73.2489 67.132C73.2488 67.132 73.2487 67.132 73.2487 67.132C73.2486 67.132 73.2485 67.132 73.2484 67.132C73.2483 67.132 73.2482 67.132 73.2481 67.132C73.248 67.132 73.248 67.132 73.2479 67.132C73.2478 67.132 73.2477 67.132 73.2476 67.132C73.2475 67.132 73.2474 67.132 73.2474 67.132C73.2473 67.132 73.2472 67.132 73.2471 67.132C73.247 67.132 73.2469 67.132 73.2468 67.132C73.2468 67.132 73.2467 67.132 73.2466 67.132C73.2465 67.132 73.2464 67.132 73.2463 67.132C73.2462 67.132 73.2462 67.132 73.2461 67.132C73.246 67.132 73.2459 67.132 73.2458 67.132C73.2457 67.132 73.2456 67.132 73.2456 67.132C73.2455 67.132 73.2454 67.132 73.2453 67.132C73.2452 67.132 73.2451 67.132 73.245 67.132C73.245 67.132 73.2449 67.132 73.2448 67.132C73.2447 67.132 73.2446 67.132 73.2445 67.132C73.2444 67.132 73.2444 67.132 73.2443 67.132C73.2442 67.132 73.2441 67.132 73.244 67.132C73.2439 67.132 73.2439 67.132 73.2438 67.132C73.2437 67.132 73.2436 67.132 73.2435 67.132C73.2434 67.132 73.2434 67.132 73.2433 67.132C73.2432 67.132 73.2431 67.132 73.243 67.132C73.2429 67.132 73.2428 67.132 73.2428 67.132C73.2427 67.132 73.2426 67.132 73.2425 67.132C73.2424 67.132 73.2423 67.132 73.2423 67.132C73.2422 67.132 73.2421 67.132 73.242 67.132C73.2419 67.132 73.2418 67.132 73.2418 67.132C73.2417 67.132 73.2416 67.132 73.2415 67.132C73.2414 67.132 73.2413 67.132 73.2413 67.132C73.2412 67.132 73.2411 67.132 73.241 67.132C73.2409 67.132 73.2408 67.132 73.2408 67.132C73.2407 67.132 73.2406 67.132 73.2405 67.132C73.2404 67.132 73.2403 67.132 73.2403 67.132C73.2402 67.132 73.2401 67.132 73.24 67.132C73.2399 67.132 73.2398 67.132 73.2398 67.132C73.2397 67.132 73.2396 67.132 73.2395 67.132C73.2394 67.132 73.2394 67.132 73.2393 67.132C73.2392 67.132 73.2391 67.132 73.239 67.132C73.2389 67.132 73.2389 67.132 73.2388 67.132C73.2387 67.132 73.2386 67.132 73.2385 67.132C73.2384 67.132 73.2384 67.132 73.2383 67.132C73.2382 67.132 73.2381 67.132 73.238 67.132C73.238 67.132 73.2379 67.132 73.2378 67.132C73.2377 67.132 73.2376 67.132 73.2375 67.132C73.2375 67.132 73.2374 67.132 73.2373 67.132C73.2372 67.132 73.2371 67.132 73.237 67.132C73.237 67.132 73.2369 67.132 73.2368 67.132C73.2367 67.132 73.2366 67.132 73.2366 67.132C73.2365 67.132 73.2364 67.132 73.2363 67.132C73.2362 67.132 73.2362 67.132 73.2361 67.132C73.236 67.132 73.2359 67.132 73.2358 67.132C73.2357 67.132 73.2357 67.132 73.2356 67.132C73.2355 67.132 73.2354 67.132 73.2353 67.132C73.2353 67.132 73.2352 67.132 73.2351 67.132C73.235 67.132 73.2349 67.132 73.2348 67.132C73.2348 67.132 73.2347 67.132 73.2346 67.132C73.2345 67.132 73.2344 67.132 73.2344 67.132C73.2343 67.132 73.2342 67.132 73.2341 67.132C73.234 67.132 73.234 67.132 73.2339 67.132C73.2338 67.132 73.2337 67.132 73.2336 67.132C73.2335 67.132 73.2335 67.132 73.2334 67.132C73.2333 67.132 73.2332 67.132 73.2331 67.132C73.2331 67.132 73.233 67.132 73.2329 67.132C73.2328 67.132 73.2327 67.132 73.2327 67.132C73.2326 67.132 73.2325 67.132 73.2324 67.132C73.2323 67.132 73.2322 67.132 73.2322 67.132C73.2321 67.132 73.232 67.132 73.2319 67.132C73.2318 67.132 73.2318 67.132 73.2317 67.132C73.2316 67.132 73.2315 67.132 73.2314 67.132C73.2314 67.132 73.2313 67.132 73.2312 67.132C73.2311 67.132 73.231 67.132 73.2309 67.132C73.2309 67.132 73.2308 67.132 73.2307 67.132C73.2306 67.132 73.2305 67.132 73.2305 67.132C73.2304 67.132 73.2303 67.132 73.2302 67.132C73.2301 67.132 73.2301 67.132 73.23 67.132C73.2299 67.132 73.2298 67.132 73.2297 67.132C73.2296 67.132 73.2296 67.132 73.2295 67.132C73.2294 67.132 73.2293 67.132 73.2292 67.132C73.2292 67.132 73.2291 67.132 73.229 67.132C73.2289 67.132 73.2288 67.132 73.2288 67.132C73.2287 67.132 73.2286 67.132 73.2285 67.132C73.2284 67.132 73.2283 67.132 73.2283 67.132C73.2282 67.132 73.2281 67.132 73.228 67.132C73.2279 67.132 73.2279 67.132 73.2278 67.132C73.2277 67.132 73.2276 67.132 73.2275 67.132C73.2275 67.132 73.2274 67.132 73.2273 67.132C73.2272 67.132 73.2271 67.132 73.227 67.132C73.227 67.132 73.2269 67.132 73.2268 67.132C73.2267 67.132 73.2266 67.132 73.2266 67.132C73.2265 67.132 73.2264 67.132 73.2263 67.132C73.2262 67.132 73.2261 67.132 73.2261 67.132C73.226 67.132 73.2259 67.132 73.2258 67.132C73.2257 67.132 73.2257 67.132 73.2256 67.132C73.2255 67.132 73.2254 67.132 73.2253 67.132C73.2252 67.132 73.2252 67.132 73.2251 67.132C73.225 67.132 73.2249 67.132 73.2248 67.132C73.2248 67.132 73.2247 67.132 73.2246 67.132C73.2245 67.132 73.2244 67.132 73.2243 67.132C73.2243 67.132 73.2242 67.132 73.2241 67.132C73.224 67.132 73.2239 67.132 73.2239 67.132C73.2238 67.132 73.2237 67.132 73.2236 67.132C73.2235 67.132 73.2234 67.132 73.2234 67.132C73.2233 67.132 73.2232 67.132 73.2231 67.132C73.223 67.132 73.2229 67.132 73.2229 67.132C73.2228 67.132 73.2227 67.132 73.2226 67.132C73.2225 67.132 73.2224 67.132 73.2224 67.132C73.2223 67.132 73.2222 67.132 73.2221 67.132C73.222 67.132 73.222 67.132 73.2219 67.132C73.2218 67.132 73.2217 67.132 73.2216 67.132C73.2215 67.132 73.2215 67.132 73.2214 67.132C73.2213 67.132 73.2212 67.132 73.2211 67.132C73.221 67.132 73.221 67.132 73.2209 67.132C73.2208 67.132 73.2207 67.132 73.2206 67.132C73.2205 67.132 73.2205 67.132 73.2204 67.132C73.2203 67.132 73.2202 67.132 73.2201 67.132C73.22 67.132 73.22 67.132 73.2199 67.132C73.2198 67.132 73.2197 67.132 73.2196 67.132C73.2195 67.132 73.2194 67.132 73.2194 67.132C73.2193 67.132 73.2192 67.132 73.2191 67.132C73.219 67.132 73.2189 67.132 73.2189 67.132C73.2188 67.132 73.2187 67.132 73.2186 67.132C73.2185 67.132 73.2184 67.132 73.2184 67.132C73.2183 67.132 73.2182 67.132 73.2181 67.132C73.218 67.132 73.2179 67.132 73.2178 67.132C73.2178 67.132 73.2177 67.132 73.2176 67.132C73.2175 67.132 73.2174 67.132 73.2173 67.132C73.2173 67.132 73.2172 67.132 73.2171 67.132C73.217 67.132 73.2169 67.132 73.2168 67.132C73.2167 67.132 73.2167 67.132 73.2166 67.132C73.2165 67.132 73.2164 67.132 73.2163 67.132C73.2162 67.132 73.2161 67.132 73.2161 67.132C73.216 67.132 73.2159 67.132 73.2158 67.132C73.2157 67.132 73.2156 67.132 73.2155 67.132C73.2155 67.132 73.2154 67.132 73.2153 67.132C73.2152 67.132 73.2151 67.132 73.215 67.132C73.2149 67.132 73.2148 67.132 73.2148 67.132C73.2147 67.132 73.2146 67.132 73.2145 67.132C73.2144 67.132 73.2143 67.132 73.2142 67.132C73.2142 67.132 73.2141 67.132 73.214 67.132C73.2139 67.132 73.2138 67.132 73.2137 67.132C73.2136 67.132 73.2135 67.132 73.2135 67.132C73.2134 67.132 73.2133 67.132 73.2132 67.132C73.2131 67.132 73.213 67.132 73.2129 67.132C73.2128 67.132 73.2128 67.132 73.2127 67.132C73.2126 67.132 73.2125 67.132 73.2124 67.132C73.2123 67.132 73.2122 67.132 73.2121 67.132C73.2121 67.132 73.212 67.132 73.2119 67.132C73.2118 67.132 73.2117 67.132 73.2116 67.132C73.2115 67.132 73.2114 67.132 73.2113 67.132C73.2113 67.132 73.2112 67.132 73.2111 67.132C73.211 67.132 73.2109 67.132 73.2108 67.132C73.2107 67.132 73.2106 67.132 73.2105 67.132C73.2104 67.132 73.2104 67.132 73.2103 67.132C73.2102 67.132 73.2101 67.132 73.21 67.132C73.2099 67.132 73.2098 67.132 73.2097 67.132C73.2096 67.132 73.2096 67.132 73.2095 67.132C73.2094 67.132 73.2093 67.132 73.2092 67.132C73.2091 67.132 73.209 67.132 73.2089 67.132C73.2088 67.132 73.2087 67.132 73.2086 67.132C73.2086 67.132 73.2085 67.132 73.2084 67.132C73.2083 67.132 73.2082 67.132 73.2081 67.132C73.208 67.132 73.2079 67.132 73.2078 67.132C73.2077 67.132 73.2076 67.132 73.2075 67.132C73.2075 67.132 73.2074 67.132 73.2073 67.132C73.2072 67.132 73.2071 67.132 73.207 67.132C73.2069 67.132 73.2068 67.132 73.2067 67.132C73.2066 67.132 73.2065 67.132 73.2064 67.132C73.2063 67.132 73.2063 67.132 73.2062 67.132C73.2061 67.132 73.206 67.132 73.2059 67.132C73.2058 67.132 73.2057 67.132 73.2056 67.132C73.2055 67.132 73.2054 67.132 73.2053 67.132C73.2052 67.132 73.2051 67.132 73.205 67.132C73.2049 67.132 73.2048 67.132 73.2048 67.132C73.2047 67.132 73.2046 67.132 73.2045 67.132C73.2044 67.132 73.2043 67.132 73.2042 67.132C73.2041 67.132 73.204 67.132 73.2039 67.132C73.2038 67.132 73.2037 67.132 73.2036 67.132C73.2035 67.132 73.2034 67.132 73.2033 67.132C73.2032 67.132 73.2031 67.132 73.203 67.132C73.2029 67.132 73.2029 67.132 73.2028 67.132C73.2027 67.132 73.2026 67.132 73.2025 67.132C73.2024 67.132 73.2023 67.132 73.2022 67.132C73.2021 67.132 73.202 67.132 73.2019 67.132C73.2018 67.132 73.2017 67.132 73.2016 67.132C73.2015 67.132 73.2014 67.132 73.2013 67.132C73.2012 67.132 73.2011 67.132 73.201 67.132C73.2009 67.132 73.2008 67.132 73.2007 67.132C73.2006 67.132 73.2005 67.132 73.2004 67.132C73.2003 67.132 73.2002 67.132 73.2001 67.132C73.2 67.132 73.1999 67.132 73.1998 67.132C73.1997 67.132 73.1996 67.132 73.1995 67.132C73.1994 67.132 73.1993 67.132 73.1992 67.132C73.1991 67.132 73.199 67.132 73.1989 67.132C73.1988 67.132 73.1987 67.132 73.1986 67.132C73.1985 67.132 73.1984 67.132 73.1983 67.132C73.1982 67.132 73.1981 67.132 73.198 67.132C73.1979 67.132 73.1978 67.132 73.1977 67.132C73.1976 67.132 73.1975 67.132 73.1974 67.132C73.1973 67.132 73.1972 67.132 73.1971 67.132C73.197 67.132 73.1969 67.132 73.1968 67.132C73.1967 67.132 73.1966 67.132 73.1965 67.132C73.1964 67.132 73.1963 67.132 73.1962 67.132C73.1961 67.132 73.196 67.132 73.1959 67.132C73.1958 67.132 73.1957 67.132 73.1956 67.132C73.1955 67.132 73.1954 67.132 73.1953 67.132C73.1952 67.132 73.1951 67.132 73.195 67.132C73.1949 67.132 73.1947 67.132 73.1946 67.132C73.1945 67.132 73.1944 67.132 73.1943 67.132C73.1942 67.132 73.1941 67.132 73.194 67.132C73.1939 67.132 73.1938 67.132 73.1937 67.132C73.1936 67.132 73.1935 67.132 73.1934 67.132C73.1933 67.132 73.1932 67.132 73.1931 67.132C73.193 67.132 73.1929 67.132 73.1927 67.132C73.1926 67.132 73.1925 67.132 73.1924 67.132C73.1923 67.132 73.1922 67.132 73.1921 67.132C73.192 67.132 73.1919 67.132 73.1918 67.132C73.1917 67.132 73.1916 67.132 73.1915 67.132C73.1914 67.132 73.1912 67.132 73.1911 67.132C73.191 67.132 73.1909 67.132 73.1908 67.132C73.1907 67.132 73.1906 67.132 73.1905 67.132C73.1904 67.132 73.1903 67.132 73.1902 67.132C73.19 67.132 73.1899 67.132 73.1898 67.132C73.1897 67.132 73.1896 67.132 73.1895 67.132C73.1894 67.132 73.1893 67.132 73.1892 67.132C73.1891 67.132 73.1889 67.132 73.1888 67.132C73.1887 67.132 73.1886 67.132 73.1885 67.132C73.1884 67.132 73.1883 67.132 73.1882 67.132C73.1881 67.132 73.1879 67.132 73.1878 67.132C73.1877 67.132 73.1876 67.132 73.1875 67.132C73.1874 67.132 73.1873 67.132 73.1872 67.132C73.187 67.132 73.1869 67.132 73.1868 67.132C73.1867 67.132 73.1866 67.132 73.1865 67.132C73.1864 67.132 73.1862 67.132 73.1861 67.132C73.186 67.132 73.1859 67.132 73.1858 67.132C73.1857 67.132 73.1856 67.132 73.1854 67.132C73.1853 67.132 73.1852 67.132 73.1851 67.132C73.185 67.132 73.1849 67.132 73.1848 67.132C73.1846 67.132 73.1845 67.132 73.1844 67.132C73.1843 67.132 73.1842 67.132 73.1841 67.132C73.1839 67.132 73.1838 67.132 73.1837 67.132C73.1836 67.132 73.1835 67.132 73.1834 67.132C73.1832 67.132 73.1831 67.132 73.183 67.132C73.1829 67.132 73.1828 67.132 73.1827 67.132C73.1825 67.132 73.1824 67.132 73.1823 67.132C73.1822 67.132 73.1821 67.132 73.1819 67.132C73.1818 67.132 73.1817 67.132 73.1816 67.132C73.1815 67.132 73.1813 67.132 73.1812 67.132C73.1811 67.132 73.181 67.132 73.1809 67.132C73.1807 67.132 73.1806 67.132 73.1805 67.132C73.1804 67.132 73.1803 67.132 73.1801 67.132C73.18 67.132 73.1799 67.132 73.1798 67.132C73.1796 67.132 73.1795 67.132 73.1794 67.132C73.1793 67.132 73.1792 67.132 73.179 67.132C73.1789 67.132 73.1788 67.132 73.1787 67.132C73.1785 67.132 73.1784 67.132 73.1783 67.132C73.1782 67.132 73.1781 67.132 73.1779 67.132C73.1778 67.132 73.1777 67.132 73.1776 67.132C73.1774 67.132 73.1773 67.132 73.1772 67.132C73.1771 67.132 73.1769 67.132 73.1768 67.132C73.1767 67.132 73.1766 67.132 73.1764 67.132C73.1763 67.132 73.1762 67.132 73.1761 67.132C73.1759 67.132 73.1758 67.132 73.1757 67.132C73.1755 67.132 73.1754 67.132 73.1753 67.132C73.1752 67.132 73.175 67.132 73.1749 67.132C73.1748 67.132 73.1747 67.132 73.1745 67.132C73.1744 67.132 73.1743 67.132 73.1741 67.132C73.174 67.132 73.1739 67.132 73.1738 67.132C73.1736 67.132 73.1735 67.132 73.1734 67.132C73.1732 67.132 73.1731 67.132 73.173 67.132C73.1728 67.132 73.1727 67.132 73.1726 67.132C73.1724 67.132 73.1723 67.132 73.1722 67.132C73.1721 67.132 73.1719 67.132 73.1718 67.132C73.1717 67.132 73.1715 67.132 73.1714 67.132C73.1713 67.132 73.1711 67.132 73.171 67.132C73.1709 67.132 73.1707 67.132 73.1706 67.132C73.1705 67.132 73.1703 67.132 73.1702 67.132C73.1701 67.132 73.1699 67.132 73.1698 67.132C73.1697 67.132 73.1695 67.132 73.1694 67.132C73.1693 67.132 73.1691 67.132 73.169 67.132C73.1689 67.132 73.1687 67.132 73.1686 67.132C73.1684 67.132 73.1683 67.132 73.1682 67.132C73.168 67.132 73.1679 67.132 73.1678 67.132C73.1676 67.132 73.1675 67.132 73.1674 67.132C73.1672 67.132 73.1671 67.132 73.1669 67.132C73.1668 67.132 73.1667 67.132 73.1665 67.132C73.1664 67.132 73.1662 67.132 73.1661 67.132C73.166 67.132 73.1658 67.132 73.1657 67.132C73.1656 67.132 73.1654 67.132 73.1653 67.132C73.1651 67.132 73.165 67.132 73.1649 67.132C73.1647 67.132 73.1646 67.132 73.1644 67.132C73.1643 67.132 73.1641 67.132 73.164 67.132C73.1639 67.132 73.1637 67.132 73.1636 67.132C73.1634 67.132 73.1633 67.132 73.1632 67.132C73.163 67.132 73.1629 67.132 73.1627 67.132C73.1626 67.132 73.1624 67.132 73.1623 67.132C73.1621 67.132 73.162 67.132 73.1619 67.132C73.1617 67.132 73.1616 67.132 73.1614 67.132C73.1613 67.132 73.1611 67.132 73.161 67.132C73.1608 67.132 73.1607 67.132 73.1606 67.132C73.1604 67.132 73.1603 67.132 73.1601 67.132C73.16 67.132 73.1598 67.132 73.1597 67.132C73.1595 67.132 73.1594 67.132 73.1592 67.132C73.1591 67.132 73.1589 67.132 73.1588 67.132C73.1586 67.132 73.1585 67.132 73.1583 67.132C73.1582 67.132 73.158 67.132 73.1579 67.132C73.1577 67.132 73.1576 67.132 73.1574 67.132C73.1573 67.132 73.1571 67.132 73.157 67.132C73.1568 67.132 73.1567 67.132 73.1565 67.132C73.1564 67.132 73.1562 67.132 73.1561 67.132C73.1559 67.132 73.1558 67.132 73.1556 67.132C73.1555 67.132 73.1553 67.132 73.1552 67.132C73.155 67.132 73.1549 67.132 73.1547 67.132C73.1546 67.132 73.1544 67.132 73.1542 67.132C73.1541 67.132 73.1539 67.132 73.1538 67.132C73.1536 67.132 73.1535 67.132 73.1533 67.132C73.1532 67.132 73.153 67.132 73.1528 67.132C73.1527 67.132 73.1525 67.132 73.1524 67.132C73.1522 67.132 73.1521 67.132 73.1519 67.132C73.1518 67.132 73.1516 67.132 73.1514 67.132C73.1513 67.132 73.1511 67.132 73.151 67.132C73.1508 67.132 73.1506 67.132 73.1505 67.132C73.1503 67.132 73.1502 67.132 73.15 67.132C73.1498 67.132 73.1497 67.132 73.1495 67.132C73.1494 67.132 73.1492 67.132 73.149 67.132C73.1489 67.132 73.1487 67.132 73.1486 67.132C73.1484 67.132 73.1482 67.132 73.1481 67.132V69.5865ZM73.825 69.4753L74.7392 69.0569L73.7179 66.8249L72.8036 67.2433L73.825 69.4753ZM74.7804 69.0371C75.1174 68.8675 75.3689 68.5903 75.5213 68.3143C75.6576 68.0672 75.8797 67.5022 75.5771 66.8929L73.3788 67.9848C73.1593 67.5429 73.3398 67.187 73.3723 67.1283C73.4207 67.0405 73.506 66.9306 73.6768 66.8447L74.7804 69.0371ZM75.6102 66.9653L73.6154 62.196L71.3509 63.1431L73.3457 67.9124L75.6102 66.9653ZM72.4831 63.8968H76.2234V61.4422H72.4831V63.8968ZM76.2234 63.8968C76.667 63.8968 77.0058 63.686 77.2084 63.4821C77.4115 63.2777 77.6169 62.9403 77.6169 62.5022H75.1624C75.1624 62.1478 75.3262 61.894 75.467 61.7523C75.6072 61.6112 75.8629 61.4422 76.2234 61.4422V63.8968ZM76.3896 62.5022C77.6169 62.5022 77.6169 62.5016 77.6169 62.501C77.6169 62.5008 77.6169 62.5002 77.6169 62.4998C77.6169 62.499 77.6169 62.4982 77.6169 62.4974C77.6169 62.4957 77.6169 62.4941 77.6169 62.4925C77.6168 62.4891 77.6168 62.4857 77.6167 62.4823C77.6166 62.4754 77.6165 62.4681 77.6162 62.4606C77.6157 62.4456 77.6149 62.4293 77.6137 62.4117C77.6112 62.377 77.6069 62.3354 77.5991 62.2887C77.5846 62.201 77.5533 62.0652 77.4784 61.9144C77.4012 61.759 77.2658 61.5651 77.0385 61.4125C76.8031 61.2546 76.5437 61.1912 76.3065 61.1912V63.6458C76.1109 63.6458 75.8826 63.5929 75.6707 63.4506C75.4667 63.3138 75.3469 63.1407 75.2801 63.0063C75.2156 62.8764 75.1894 62.7615 75.1775 62.6895C75.1711 62.6506 75.1674 62.6155 75.1653 62.5854C75.1642 62.5701 75.1635 62.5556 75.163 62.5418C75.1628 62.5349 75.1626 62.5282 75.1625 62.5216C75.1625 62.5183 75.1624 62.515 75.1624 62.5118C75.1624 62.5101 75.1624 62.5085 75.1624 62.5069C75.1624 62.5061 75.1624 62.5053 75.1624 62.5045C75.1624 62.5041 75.1624 62.5035 75.1624 62.5033C75.1624 62.5027 75.1624 62.5021 76.3896 62.5022ZM77.1728 61.5492L68.9442 53.3492L67.2116 55.0879L75.4402 63.2878L77.1728 61.5492ZM68.9486 53.3536C68.8139 53.218 68.4752 52.9285 67.9637 52.9285C67.66 52.9285 67.2826 53.0409 66.9997 53.3664C66.7364 53.6693 66.6844 54.0084 66.6844 54.2185H69.139C69.139 54.3868 69.0974 54.6946 68.8523 54.9766C68.5875 55.2812 68.2362 55.3831 67.9637 55.3831C67.5144 55.3831 67.2589 55.1355 67.2072 55.0835L68.9486 53.3536ZM67.041 53.3536L66.9579 53.4373L68.6993 55.1671L68.7824 55.0835L67.041 53.3536ZM66.6013 54.3022V66.0164H69.0559V54.3022H66.6013ZM66.6013 66.0164C66.6013 66.4545 66.8068 66.792 67.0098 66.9964C67.2124 67.2003 67.5512 67.4111 67.9948 67.4111V64.9565C68.3553 64.9565 68.611 65.1254 68.7512 65.2666C68.892 65.4083 69.0559 65.662 69.0559 66.0164H66.6013ZM67.9948 66.1838C67.9948 67.4111 67.9954 67.4111 67.996 67.4111C67.9962 67.4111 67.9968 67.4111 67.9972 67.4111C67.998 67.411 67.9989 67.411 67.9997 67.411C68.0013 67.411 68.003 67.411 68.0047 67.411C68.008 67.411 68.0115 67.4109 68.015 67.4109C68.022 67.4108 68.0293 67.4106 68.0369 67.4103C68.0521 67.4098 68.0686 67.409 68.0864 67.4077C68.1215 67.4052 68.1636 67.4008 68.2109 67.3928C68.2996 67.3779 68.4365 67.3459 68.5882 67.2696C68.7448 67.1907 68.9375 67.0536 69.0882 66.8261C69.2437 66.5913 69.3052 66.3341 69.3052 66.1001H66.8507C66.8507 65.9079 66.9018 65.6821 67.0417 65.4709C67.1768 65.2669 67.3488 65.1455 67.4846 65.0771C67.6155 65.0112 67.7316 64.9844 67.8047 64.9721C67.8442 64.9655 67.8798 64.9617 67.9104 64.9595C67.9259 64.9584 67.9407 64.9576 67.9546 64.9572C67.9616 64.9569 67.9685 64.9568 67.9752 64.9567C67.9785 64.9566 67.9818 64.9566 67.9851 64.9565C67.9867 64.9565 67.9884 64.9565 67.99 64.9565C67.9908 64.9565 67.9916 64.9565 67.9924 64.9565C67.9928 64.9565 67.9934 64.9565 67.9936 64.9565C67.9942 64.9565 67.9948 64.9565 67.9948 66.1838ZM68.922 66.991L71.748 64.3135L70.0598 62.5317L67.2338 65.2092L68.922 66.991Z" fill="#42D392" mask="url(#path-8-inside-1_488_13323)"></path></svg>