<svg width="43" height="73" viewBox="0 0 43 73" fill="none" xmlns="http://www.w3.org/2000/svg"><path d="M21.4281 69.4163C22.7623 69.4163 23.8439 68.3298 23.8439 66.9896C23.8439 65.6494 22.7623 64.563 21.4281 64.563C20.0939 64.563 19.0123 65.6494 19.0123 66.9896C19.0123 68.3298 20.0939 69.4163 21.4281 69.4163Z" fill="#4BC0AF"></path><path opacity="0.4" d="M23.9272 12.7666H5.76684V30.6736H23.9272V12.7666Z" fill="#4BC0AF"></path><path d="M4.26736 1.38623C2.85118 1.55359 1.85152 2.6414 2.01813 3.98024V68.7468C1.93483 70.0019 2.93448 71.1734 4.26736 71.3408H39.0054C40.4215 71.1734 41.4212 70.0856 41.2546 68.7468V3.98024C41.3379 2.72507 40.3382 1.55359 39.0054 1.38623H4.26736Z" stroke="#42D392" stroke-width="2.45455" stroke-miterlimit="10"></path><path d="M41.088 8.91721H2.26805C2.10144 8.91721 2.10144 8.5825 2.10144 8.08043C2.10144 7.57836 2.01813 7.24365 2.26805 7.24365H40.9214C41.3379 7.24365 41.1713 7.57836 41.1713 8.08043C41.1713 8.5825 41.2546 8.74985 41.088 8.91721Z" fill="#42D392" stroke="#42D392" stroke-width="1.22727" stroke-miterlimit="10"></path><path d="M41.088 62.2202H2.18474C2.01813 62.2202 2.10144 61.8855 2.10144 61.3834C2.10144 60.8813 2.10143 60.5466 2.18474 60.5466H40.8381C41.2546 60.5466 41.0047 60.8813 41.0047 61.3834C41.0047 61.8855 41.3379 62.2202 40.8381 62.2202H41.088Z" fill="#42D392" stroke="#42D392" stroke-width="1.22727" stroke-miterlimit="10"></path><path d="M24.7603 5.15183H18.0959C17.5961 5.15183 17.2629 4.81711 17.2629 4.31505C17.2629 3.81298 17.5961 3.47827 18.0959 3.47827H24.7603C25.2601 3.47827 25.5933 3.81298 25.5933 4.31505C25.5933 4.81711 25.1768 5.15183 24.7603 5.15183Z" fill="#42D392" stroke="#42D392" stroke-width="1.22727" stroke-miterlimit="10"></path><path d="M21.4281 69.5002C22.8083 69.5002 23.9272 68.3762 23.9272 66.9898C23.9272 65.6034 22.8083 64.4795 21.4281 64.4795C20.0479 64.4795 18.929 65.6034 18.929 66.9898C18.929 68.3762 20.0479 69.5002 21.4281 69.5002Z" stroke="#145F1F" stroke-width="1.22727" stroke-miterlimit="10"></path><path d="M23.0942 30.7571H6.43327C5.93345 30.7571 5.60023 30.3387 5.60023 29.8367V13.4358C5.60023 12.9338 5.93345 12.5154 6.43327 12.5154H23.0109C23.5107 12.5154 23.8439 12.9338 23.8439 13.4358V29.8367C23.9272 30.3387 23.5107 30.7571 23.0942 30.7571Z" stroke="#145F1F" stroke-width="2.45455" stroke-miterlimit="10"></path><path d="M37.6725 14.5236H27.6759C27.1761 14.5236 26.8429 14.1053 26.8429 13.5195C26.8429 12.9338 27.1761 12.5154 27.6759 12.5154H37.6725C38.1723 12.5154 38.5055 12.9338 38.5055 13.5195C38.5055 14.1053 38.1723 14.5236 37.6725 14.5236Z" stroke="#42D392" stroke-width="1.47273" stroke-miterlimit="10"></path><path d="M38.5055 34.3552H5.18371V57.6176H38.5055V34.3552Z" stroke="#42D392" stroke-width="2.45455" stroke-miterlimit="10" stroke-linecap="round" stroke-linejoin="round"></path><path d="M5.35032 51.9277L13.0143 46.4886L18.4291 50.3378L30.0918 42.0537L37.9224 47.5764" stroke="#42D392" stroke-width="1.22727" stroke-miterlimit="10" stroke-linecap="round" stroke-linejoin="round"></path><path d="M16.3465 42.3883C17.9108 42.3883 19.1789 41.1146 19.1789 39.5433C19.1789 37.972 17.9108 36.6982 16.3465 36.6982C14.7823 36.6982 13.5142 37.972 13.5142 39.5433C13.5142 41.1146 14.7823 42.3883 16.3465 42.3883Z" stroke="#42D392" stroke-width="1.22727" stroke-miterlimit="10" stroke-linecap="round" stroke-linejoin="round"></path><path d="M37.6725 30.757H27.6759C27.1761 30.757 26.8429 30.3387 26.8429 29.7529C26.8429 29.1672 27.1761 28.7488 27.6759 28.7488H37.6725C38.1723 28.7488 38.5055 29.1672 38.5055 29.7529C38.5055 30.3387 38.1723 30.757 37.6725 30.757Z" stroke="#42D392" stroke-width="1.47273" stroke-miterlimit="10"></path><path d="M36.8395 25.5691H27.6759C27.2594 25.5691 26.9262 25.1507 26.9262 24.5649C26.9262 23.9792 27.2594 23.5608 27.6759 23.5608H36.8395C37.256 23.5608 37.5892 23.9792 37.5892 24.5649C37.5892 25.1507 37.256 25.5691 36.8395 25.5691Z" stroke="#42D392" stroke-width="1.47273" stroke-miterlimit="10"></path><path d="M35.6732 20.2138H27.5093C27.1761 20.2138 26.8429 19.7954 26.8429 19.2097C26.8429 18.624 27.1761 18.2056 27.5093 18.2056H35.6732C36.0064 18.2056 36.3396 18.624 36.3396 19.2097C36.3396 19.7954 36.0897 20.2138 35.6732 20.2138Z" stroke="#42D392" stroke-width="1.47273" stroke-miterlimit="10"></path></svg>