<svg width="102" height="73" viewBox="0 0 102 90" fill="none" xmlns="http://www.w3.org/2000/svg"><path opacity="0.4" d="M76.8614 45.3373C85.9117 38.9275 87.9179 26.221 81.3425 16.9566C74.767 7.69217 62.0999 5.37803 53.0496 11.7878C43.9993 18.1976 41.9931 30.9041 48.5685 40.1685C55.144 49.433 67.8111 51.7471 76.8614 45.3373Z" fill="#4BC0AF"></path><path d="M80.313 44.0713L100.599 64.3356" stroke="#006655" stroke-width="2.45455" stroke-linecap="round" stroke-linejoin="round"></path><path d="M65.3437 48.8114C76.4923 48.8114 85.5301 39.7832 85.5301 28.6464C85.5301 17.5096 76.4923 8.48145 65.3437 8.48145C54.195 8.48145 45.1572 17.5096 45.1572 28.6464C45.1572 39.7832 54.195 48.8114 65.3437 48.8114Z" stroke="#006655" stroke-width="2.45455" stroke-linecap="round" stroke-linejoin="round"></path><path d="M33.7216 5.50146H12.2424V79.3073H69.2219V60.3343" stroke="#42D392" stroke-width="2.45455" stroke-miterlimit="10" stroke-linecap="round" stroke-linejoin="round"></path><path d="M12.1429 17.2231H2V88.5456H58.0845V79.6054" stroke="#42D392" stroke-width="2.45455" stroke-miterlimit="10" stroke-linecap="round" stroke-linejoin="round"></path><path d="M31.6333 20.3026H19.0043C18.1094 20.3026 17.4133 19.6072 17.4133 18.7132V16.5278C17.4133 15.6338 18.1094 14.9385 19.0043 14.9385H31.6333C32.5283 14.9385 33.2243 15.6338 33.2243 16.5278V18.7132C33.2243 19.6072 32.5283 20.3026 31.6333 20.3026Z" stroke="#42D392" stroke-width="2.45455" stroke-miterlimit="10"></path><path d="M36.307 35.4014H19.0043C18.1094 35.4014 17.4133 34.7061 17.4133 33.8121V31.6267C17.4133 30.7327 18.1094 30.0374 19.0043 30.0374H36.307C37.202 30.0374 37.898 30.7327 37.898 31.6267V33.8121C37.7986 34.7061 37.1025 35.4014 36.307 35.4014Z" stroke="#42D392" stroke-width="2.45455" stroke-miterlimit="10"></path><path d="M38.6936 49.1097H19.0043C18.1094 49.1097 17.4133 48.4143 17.4133 47.5203V45.335C17.4133 44.4409 18.1094 43.7456 19.0043 43.7456H38.793C39.688 43.7456 40.3841 44.4409 40.3841 45.335V47.5203C40.2846 48.4143 39.5885 49.1097 38.6936 49.1097Z" stroke="#42D392" stroke-width="2.45455" stroke-miterlimit="10"></path></svg>